<?xml version="1.0" encoding="utf-8"?>
<!-- Generator: Adobe Illustrator 24.0.3, SVG Export Plug-In . SVG Version: 6.00 Build 0)  -->
<svg version="1.1" id="Layer_1" xmlns="http://www.w3.org/2000/svg" xmlns:xlink="http://www.w3.org/1999/xlink" x="0px" y="0px"
	 viewBox="0 0 80 80" style="enable-background:new 0 0 80 80;" xml:space="preserve">
<style type="text/css">
	.st0{fill:#6cafb0;}
	.st1{fill:#232F3E;}
	.st2{display:none;}
	.st3{display:inline;}
</style>
<g>
	<path class="st0" d="M32.2,4.2h19.99c0.5,0,0.91,0.41,0.91,0.91v6.36c0,0.5-0.41,0.91-0.91,0.91H32.2c-0.5,0-0.91-0.41-0.91-0.91
		V5.11C31.29,4.6,31.7,4.2,32.2,4.2z"/>
	<path class="st0" d="M44.94,71.83L44.94,71.83c2.25,0,4.08,1.83,4.08,4.08l0,0c0,2.25-1.83,4.08-4.08,4.08l0,0
		c-2.25,0-4.08-1.83-4.08-4.08l0,0C40.85,73.66,42.68,71.83,44.94,71.83z"/>
	<path class="st0" d="M20.95,58.38c-6.86,0-12.42-5.56-12.42-12.42s5.56-12.42,12.42-12.42V58.38z"/>
	<path class="st0" d="M62.92,58.27c6.86,0,12.42-5.56,12.42-12.42s-5.56-12.42-12.42-12.42V58.27z"/>
	<path class="st1" d="M73.7,43.27c-0.01-6.32-4.32-11.82-10.45-13.35v-6.3c-0.04-7.78-4.67-14.81-11.8-17.92V4.08
		c0-2.25-1.83-4.08-4.09-4.08H31.01c-2.25,0-4.08,1.83-4.08,4.08V5.7c-7.14,3.1-11.77,10.13-11.81,17.92v6.28
		C7.74,31.73,3.24,39.19,5.07,46.57c1.43,5.76,6.39,9.96,12.31,10.41c0.76,2.12,3.09,3.23,5.21,2.47c1.63-0.58,2.71-2.13,2.71-3.86
		V30.88c0.01-2.25-1.81-4.08-4.06-4.09c-1.34-0.01-2.59,0.64-3.36,1.74v-4.91c0.03-6.41,3.67-12.26,9.43-15.1
		c0.66,1.44,2.11,2.37,3.7,2.38h16.35c1.59,0,3.04-0.93,3.7-2.38c5.77,2.83,9.43,8.68,9.46,15.1v4.95c-1.29-1.84-3.83-2.3-5.68-1
		c-1.09,0.76-1.74,2-1.74,3.32V55.6c-0.02,2.25,1.77,4.09,4.02,4.11c1.27,0.01,2.46-0.56,3.24-1.55
		c-0.98,6.83-5.97,12.4-12.66,14.08c-1.02-2.83-4.15-4.3-6.98-3.27c-2.83,1.02-4.3,4.15-3.27,6.98c1.02,2.83,4.15,4.3,6.98,3.27
		c1.86-0.67,3.21-2.3,3.53-4.25c8.64-1.99,14.88-9.51,15.26-18.36C69.37,55.1,73.69,49.59,73.7,43.27z M7.39,43.27
		c0.01-5.58,4.16-10.28,9.69-10.98v21.94C11.55,53.53,7.41,48.83,7.39,43.27z M21.17,29.55c0.75,0,1.36,0.61,1.36,1.36V55.6
		c0,0.75-0.61,1.36-1.36,1.36s-1.36-0.61-1.36-1.36l0,0V30.88C19.83,30.15,20.43,29.55,21.17,29.55z M48.72,6.81
		c0,0.75-0.61,1.36-1.36,1.36H31.01c-0.75,0-1.36-0.61-1.36-1.36V4.08c0-0.75,0.61-1.36,1.36-1.36h16.35c0.75,0,1.36,0.61,1.36,1.36
		V6.81L48.72,6.81z M42.59,76.83c-1.51,0-2.73-1.22-2.73-2.73s1.22-2.73,2.73-2.73s2.73,1.22,2.73,2.73
		C45.31,75.6,44.09,76.83,42.59,76.83z M57.19,56.96c-0.75,0-1.36-0.61-1.36-1.36l0,0V30.88c0-0.75,0.61-1.36,1.36-1.36
		s1.36,0.61,1.36,1.36V55.6C58.56,56.35,57.95,56.96,57.19,56.96L57.19,56.96z M61.29,54.23V32.29c6.06,0.76,10.35,6.29,9.59,12.35
		C70.25,49.65,66.3,53.6,61.29,54.23L61.29,54.23z"/>
</g>
<g id="Pound" class="st2">
	<g class="st3">
		<g>
			<g>
				<defs>
					<path id="SVGID_1_" d="M-58.28,145.37h0.68c4.01-0.01,18.46-0.15,18.49,0.75c0.3,0.07,0.59,0.24,0.81,0.49
						c0.59,0.66,0.54,1.68-0.12,2.27c-3.66,3.3-5.83,7.42-6.52,12.42c-0.09,0.68-0.59,1.19-1.22,1.34
						c-0.09,0.06-0.18,0.12-0.28,0.16c-3.63,1.63-7.5,2.45-11.5,2.45s-7.87-0.82-11.5-2.45c-0.04-0.02-0.08-0.06-0.13-0.13
						c-0.71-0.09-1.29-0.64-1.39-1.37c-0.69-5-2.86-9.11-6.52-12.42c-0.66-0.59-0.71-1.61-0.12-2.27c0.49-0.55,1.27-0.68,1.9-0.37
						C-74.82,145.2-62.09,145.36-58.28,145.37z"/>
				</defs>
				<clipPath id="SVGID_2_">
					<use xlink:href="#SVGID_1_"  style="overflow:visible;"/>
				</clipPath>
			</g>
		</g>
		<g>
			<g>
				<defs>
					<ellipse id="SVGID_3_" cx="-57.76" cy="131.44" rx="26.65" ry="26.76"/>
				</defs>
				<clipPath id="SVGID_4_">
					<use xlink:href="#SVGID_3_"  style="overflow:visible;"/>
				</clipPath>
			</g>
		</g>
		<g>
			<g>
				<defs>
					<path id="SVGID_5_" d="M-60.64,156.74c-15.58,0-28.25-12.73-28.25-28.37S-76.22,100-60.64,100s28.25,12.73,28.25,28.37
						S-45.07,156.74-60.64,156.74z M-60.64,103.21c-13.81,0-25.05,11.29-25.05,25.16s11.24,25.16,25.05,25.16
						s25.05-11.29,25.05-25.16S-46.83,103.21-60.64,103.21z"/>
				</defs>
				<clipPath id="SVGID_6_">
					<use xlink:href="#SVGID_5_"  style="overflow:visible;"/>
				</clipPath>
			</g>
		</g>
		<g>
			<g>
				<defs>
					<path id="SVGID_7_" d="M-60.64,165.22c-4,0-7.87-0.82-11.5-2.45c-0.81-0.36-1.17-1.31-0.81-2.12s1.3-1.17,2.11-0.81
						c3.21,1.44,6.64,2.17,10.19,2.17s6.98-0.73,10.19-2.17c0.81-0.36,1.75,0,2.11,0.81s0,1.76-0.81,2.12
						C-52.77,164.4-56.64,165.22-60.64,165.22"/>
				</defs>
				<clipPath id="SVGID_8_">
					<use xlink:href="#SVGID_7_"  style="overflow:visible;"/>
				</clipPath>
			</g>
		</g>
		<g>
			<g>
				<defs>
					<path id="SVGID_9_" d="M-60.64,172.61c-3.43,0-6.74-0.82-9.85-2.45c-0.69-0.36-1-1.31-0.69-2.12s1.12-1.18,1.81-0.81
						c2.75,1.44,5.69,2.17,8.73,2.17s5.98-0.73,8.73-2.17c0.69-0.36,1.5,0,1.81,0.81s0,1.76-0.69,2.12
						C-53.9,171.79-57.22,172.61-60.64,172.61"/>
				</defs>
				<clipPath id="SVGID_10_">
					<use xlink:href="#SVGID_9_"  style="overflow:visible;"/>
				</clipPath>
			</g>
		</g>
		<g>
			<g>
				<defs>
					<path id="SVGID_11_" d="M-60.64,180c-2.38,0-4.75-0.3-7.06-0.9c-0.86-0.22-1.37-1.1-1.15-1.96s1.09-1.37,1.95-1.15
						c4.1,1.06,8.43,1.06,12.53,0c0.85-0.22,1.73,0.3,1.95,1.15c0.22,0.86-0.29,1.73-1.15,1.96C-55.89,179.7-58.27,180-60.64,180"/>
				</defs>
				<clipPath id="SVGID_12_">
					<use xlink:href="#SVGID_11_"  style="overflow:visible;"/>
				</clipPath>
			</g>
		</g>
		<g>
			<g>
				<defs>
					<path id="SVGID_13_" d="M-70.61,160.89c-0.84-5.79-3.5-10.65-7.95-14.49c-0.69-0.6-1.76-0.54-2.38,0.12
						c-0.62,0.67-0.56,1.69,0.13,2.29c3.85,3.33,6.13,7.49,6.86,12.53c0.13,0.89,0.98,1.5,1.9,1.38
						C-71.12,162.59-70.48,161.78-70.61,160.89z"/>
				</defs>
				<clipPath id="SVGID_14_">
					<use xlink:href="#SVGID_13_"  style="overflow:visible;"/>
				</clipPath>
			</g>
		</g>
		<g>
			<g>
				<defs>
					<path id="SVGID_15_" d="M-51.43,160.89c0.84-5.79,3.5-10.65,7.95-14.49c0.69-0.6,1.76-0.54,2.38,0.12
						c0.62,0.67,0.56,1.69-0.13,2.29c-3.85,3.33-6.13,7.49-6.86,12.53c-0.13,0.89-0.98,1.5-1.9,1.38
						C-50.92,162.59-51.56,161.78-51.43,160.89z"/>
				</defs>
				<clipPath id="SVGID_16_">
					<use xlink:href="#SVGID_15_"  style="overflow:visible;"/>
				</clipPath>
			</g>
		</g>
	</g>
</g>
<g id="Yen" class="st2">
	<g class="st3">
		<g>
			<g>
				<defs>
					<path id="SVGID_17_" d="M-58.28,145.37h0.68c4.01-0.01,18.46-0.15,18.49,0.75c0.3,0.07,0.59,0.24,0.81,0.49
						c0.59,0.66,0.54,1.68-0.12,2.27c-3.66,3.3-5.83,7.42-6.52,12.42c-0.09,0.68-0.59,1.19-1.22,1.34
						c-0.09,0.06-0.18,0.12-0.28,0.16c-3.63,1.63-7.5,2.45-11.5,2.45s-7.87-0.82-11.5-2.45c-0.04-0.02-0.08-0.06-0.13-0.13
						c-0.71-0.09-1.29-0.64-1.39-1.37c-0.69-5-2.86-9.11-6.52-12.42c-0.66-0.59-0.71-1.61-0.12-2.27c0.49-0.55,1.27-0.68,1.9-0.37
						C-74.82,145.2-62.09,145.36-58.28,145.37z"/>
				</defs>
				<clipPath id="SVGID_18_">
					<use xlink:href="#SVGID_17_"  style="overflow:visible;"/>
				</clipPath>
			</g>
		</g>
		<g>
			<g>
				<defs>
					<ellipse id="SVGID_19_" cx="-57.76" cy="131.44" rx="26.65" ry="26.76"/>
				</defs>
				<clipPath id="SVGID_20_">
					<use xlink:href="#SVGID_19_"  style="overflow:visible;"/>
				</clipPath>
			</g>
		</g>
		<g>
			<g>
				<defs>
					<path id="SVGID_21_" d="M-60.64,156.74c-15.58,0-28.25-12.73-28.25-28.37S-76.22,100-60.64,100s28.25,12.73,28.25,28.37
						S-45.07,156.74-60.64,156.74z M-60.64,103.21c-13.81,0-25.05,11.29-25.05,25.16s11.24,25.16,25.05,25.16
						s25.05-11.29,25.05-25.16S-46.83,103.21-60.64,103.21z"/>
				</defs>
				<clipPath id="SVGID_22_">
					<use xlink:href="#SVGID_21_"  style="overflow:visible;"/>
				</clipPath>
			</g>
		</g>
		<g>
			<g>
				<defs>
					<path id="SVGID_23_" d="M-60.64,165.22c-4,0-7.87-0.82-11.5-2.45c-0.81-0.36-1.17-1.31-0.81-2.12s1.3-1.17,2.11-0.81
						c3.21,1.44,6.64,2.17,10.19,2.17s6.98-0.73,10.19-2.17c0.81-0.36,1.75,0,2.11,0.81s0,1.76-0.81,2.12
						C-52.77,164.4-56.64,165.22-60.64,165.22"/>
				</defs>
				<clipPath id="SVGID_24_">
					<use xlink:href="#SVGID_23_"  style="overflow:visible;"/>
				</clipPath>
			</g>
		</g>
		<g>
			<g>
				<defs>
					<path id="SVGID_25_" d="M-60.64,172.61c-3.43,0-6.74-0.82-9.85-2.45c-0.69-0.36-1-1.31-0.69-2.12s1.12-1.18,1.81-0.81
						c2.75,1.44,5.69,2.17,8.73,2.17s5.98-0.73,8.73-2.17c0.69-0.36,1.5,0,1.81,0.81s0,1.76-0.69,2.12
						C-53.9,171.79-57.22,172.61-60.64,172.61"/>
				</defs>
				<clipPath id="SVGID_26_">
					<use xlink:href="#SVGID_25_"  style="overflow:visible;"/>
				</clipPath>
			</g>
		</g>
		<g>
			<g>
				<defs>
					<path id="SVGID_27_" d="M-60.64,180c-2.38,0-4.75-0.3-7.06-0.9c-0.86-0.22-1.37-1.1-1.15-1.96s1.09-1.37,1.95-1.15
						c4.1,1.06,8.43,1.06,12.53,0c0.85-0.22,1.73,0.3,1.95,1.15c0.22,0.86-0.29,1.73-1.15,1.96C-55.89,179.7-58.27,180-60.64,180"/>
				</defs>
				<clipPath id="SVGID_28_">
					<use xlink:href="#SVGID_27_"  style="overflow:visible;"/>
				</clipPath>
			</g>
		</g>
		<g>
			<g>
				<defs>
					<path id="SVGID_29_" d="M-70.61,160.89c-0.84-5.79-3.5-10.65-7.95-14.49c-0.69-0.6-1.76-0.54-2.38,0.12
						c-0.62,0.67-0.56,1.69,0.13,2.29c3.85,3.33,6.13,7.49,6.86,12.53c0.13,0.89,0.98,1.5,1.9,1.38
						C-71.12,162.59-70.48,161.78-70.61,160.89z"/>
				</defs>
				<clipPath id="SVGID_30_">
					<use xlink:href="#SVGID_29_"  style="overflow:visible;"/>
				</clipPath>
			</g>
		</g>
		<g>
			<g>
				<defs>
					<path id="SVGID_31_" d="M-51.43,160.89c0.84-5.79,3.5-10.65,7.95-14.49c0.69-0.6,1.76-0.54,2.38,0.12
						c0.62,0.67,0.56,1.69-0.13,2.29c-3.85,3.33-6.13,7.49-6.86,12.53c-0.13,0.89-0.98,1.5-1.9,1.38
						C-50.92,162.59-51.56,161.78-51.43,160.89z"/>
				</defs>
				<clipPath id="SVGID_32_">
					<use xlink:href="#SVGID_31_"  style="overflow:visible;"/>
				</clipPath>
			</g>
		</g>
	</g>
</g>
<g id="Euro" class="st2">
	<g class="st3">
		<g>
			<g>
				<defs>
					<path id="SVGID_33_" d="M-58.28,145.37h0.68c4.01-0.01,18.46-0.15,18.49,0.75c0.3,0.07,0.59,0.24,0.81,0.49
						c0.59,0.66,0.54,1.68-0.12,2.27c-3.66,3.3-5.83,7.42-6.52,12.42c-0.09,0.68-0.59,1.19-1.22,1.34
						c-0.09,0.06-0.18,0.12-0.28,0.16c-3.63,1.63-7.5,2.45-11.5,2.45s-7.87-0.82-11.5-2.45c-0.04-0.02-0.08-0.06-0.13-0.13
						c-0.71-0.09-1.29-0.64-1.39-1.37c-0.69-5-2.86-9.11-6.52-12.42c-0.66-0.59-0.71-1.61-0.12-2.27c0.49-0.55,1.27-0.68,1.9-0.37
						C-74.82,145.2-62.09,145.36-58.28,145.37z"/>
				</defs>
				<clipPath id="SVGID_34_">
					<use xlink:href="#SVGID_33_"  style="overflow:visible;"/>
				</clipPath>
			</g>
		</g>
		<g>
			<g>
				<defs>
					<ellipse id="SVGID_35_" cx="-57.76" cy="131.44" rx="26.65" ry="26.76"/>
				</defs>
				<clipPath id="SVGID_36_">
					<use xlink:href="#SVGID_35_"  style="overflow:visible;"/>
				</clipPath>
			</g>
		</g>
		<g>
			<g>
				<defs>
					<path id="SVGID_37_" d="M-60.64,156.74c-15.58,0-28.25-12.73-28.25-28.37S-76.22,100-60.64,100s28.25,12.73,28.25,28.37
						S-45.07,156.74-60.64,156.74z M-60.64,103.21c-13.81,0-25.05,11.29-25.05,25.16s11.24,25.16,25.05,25.16
						s25.05-11.29,25.05-25.16S-46.83,103.21-60.64,103.21z"/>
				</defs>
				<clipPath id="SVGID_38_">
					<use xlink:href="#SVGID_37_"  style="overflow:visible;"/>
				</clipPath>
			</g>
		</g>
		<g>
			<g>
				<defs>
					<path id="SVGID_39_" d="M-60.64,165.22c-4,0-7.87-0.82-11.5-2.45c-0.81-0.36-1.17-1.31-0.81-2.12s1.3-1.17,2.11-0.81
						c3.21,1.44,6.64,2.17,10.19,2.17s6.98-0.73,10.19-2.17c0.81-0.36,1.75,0,2.11,0.81s0,1.76-0.81,2.12
						C-52.77,164.4-56.64,165.22-60.64,165.22"/>
				</defs>
				<clipPath id="SVGID_40_">
					<use xlink:href="#SVGID_39_"  style="overflow:visible;"/>
				</clipPath>
			</g>
		</g>
		<g>
			<g>
				<defs>
					<path id="SVGID_41_" d="M-60.64,172.61c-3.43,0-6.74-0.82-9.85-2.45c-0.69-0.36-1-1.31-0.69-2.12s1.12-1.18,1.81-0.81
						c2.75,1.44,5.69,2.17,8.73,2.17s5.98-0.73,8.73-2.17c0.69-0.36,1.5,0,1.81,0.81s0,1.76-0.69,2.12
						C-53.9,171.79-57.22,172.61-60.64,172.61"/>
				</defs>
				<clipPath id="SVGID_42_">
					<use xlink:href="#SVGID_41_"  style="overflow:visible;"/>
				</clipPath>
			</g>
		</g>
		<g>
			<g>
				<defs>
					<path id="SVGID_43_" d="M-60.64,180c-2.38,0-4.75-0.3-7.06-0.9c-0.86-0.22-1.37-1.1-1.15-1.96s1.09-1.37,1.95-1.15
						c4.1,1.06,8.43,1.06,12.53,0c0.85-0.22,1.73,0.3,1.95,1.15c0.22,0.86-0.29,1.73-1.15,1.96C-55.89,179.7-58.27,180-60.64,180"/>
				</defs>
				<clipPath id="SVGID_44_">
					<use xlink:href="#SVGID_43_"  style="overflow:visible;"/>
				</clipPath>
			</g>
		</g>
		<g>
			<g>
				<defs>
					<path id="SVGID_45_" d="M-70.61,160.89c-0.84-5.79-3.5-10.65-7.95-14.49c-0.69-0.6-1.76-0.54-2.38,0.12
						c-0.62,0.67-0.56,1.69,0.13,2.29c3.85,3.33,6.13,7.49,6.86,12.53c0.13,0.89,0.98,1.5,1.9,1.38
						C-71.12,162.59-70.48,161.78-70.61,160.89z"/>
				</defs>
				<clipPath id="SVGID_46_">
					<use xlink:href="#SVGID_45_"  style="overflow:visible;"/>
				</clipPath>
			</g>
		</g>
		<g>
			<g>
				<defs>
					<path id="SVGID_47_" d="M-51.43,160.89c0.84-5.79,3.5-10.65,7.95-14.49c0.69-0.6,1.76-0.54,2.38,0.12
						c0.62,0.67,0.56,1.69-0.13,2.29c-3.85,3.33-6.13,7.49-6.86,12.53c-0.13,0.89-0.98,1.5-1.9,1.38
						C-50.92,162.59-51.56,161.78-51.43,160.89z"/>
				</defs>
				<clipPath id="SVGID_48_">
					<use xlink:href="#SVGID_47_"  style="overflow:visible;"/>
				</clipPath>
			</g>
		</g>
	</g>
</g>
<g id="Rupee" class="st2">
	<g class="st3">
		<g>
			<g>
				<defs>
					<path id="SVGID_49_" d="M-58.28,145.37h0.68c4.01-0.01,18.46-0.15,18.49,0.75c0.3,0.07,0.59,0.24,0.81,0.49
						c0.59,0.66,0.54,1.68-0.12,2.27c-3.66,3.3-5.83,7.42-6.52,12.42c-0.09,0.68-0.59,1.19-1.22,1.34
						c-0.09,0.06-0.18,0.12-0.28,0.16c-3.63,1.63-7.5,2.45-11.5,2.45s-7.87-0.82-11.5-2.45c-0.04-0.02-0.08-0.06-0.13-0.13
						c-0.71-0.09-1.29-0.64-1.39-1.37c-0.69-5-2.86-9.11-6.52-12.42c-0.66-0.59-0.71-1.61-0.12-2.27c0.49-0.55,1.27-0.68,1.9-0.37
						C-74.82,145.2-62.09,145.36-58.28,145.37z"/>
				</defs>
				<clipPath id="SVGID_50_">
					<use xlink:href="#SVGID_49_"  style="overflow:visible;"/>
				</clipPath>
			</g>
		</g>
		<g>
			<g>
				<defs>
					<ellipse id="SVGID_51_" cx="-57.76" cy="131.44" rx="26.65" ry="26.76"/>
				</defs>
				<clipPath id="SVGID_52_">
					<use xlink:href="#SVGID_51_"  style="overflow:visible;"/>
				</clipPath>
			</g>
		</g>
		<g>
			<g>
				<defs>
					<path id="SVGID_53_" d="M-60.64,156.74c-15.58,0-28.25-12.73-28.25-28.37S-76.22,100-60.64,100s28.25,12.73,28.25,28.37
						S-45.07,156.74-60.64,156.74z M-60.64,103.21c-13.81,0-25.05,11.29-25.05,25.16s11.24,25.16,25.05,25.16
						s25.05-11.29,25.05-25.16S-46.83,103.21-60.64,103.21z"/>
				</defs>
				<clipPath id="SVGID_54_">
					<use xlink:href="#SVGID_53_"  style="overflow:visible;"/>
				</clipPath>
			</g>
		</g>
		<g>
			<g>
				<defs>
					<path id="SVGID_55_" d="M-60.64,165.22c-4,0-7.87-0.82-11.5-2.45c-0.81-0.36-1.17-1.31-0.81-2.12s1.3-1.17,2.11-0.81
						c3.21,1.44,6.64,2.17,10.19,2.17s6.98-0.73,10.19-2.17c0.81-0.36,1.75,0,2.11,0.81s0,1.76-0.81,2.12
						C-52.77,164.4-56.64,165.22-60.64,165.22"/>
				</defs>
				<clipPath id="SVGID_56_">
					<use xlink:href="#SVGID_55_"  style="overflow:visible;"/>
				</clipPath>
			</g>
		</g>
		<g>
			<g>
				<defs>
					<path id="SVGID_57_" d="M-60.64,172.61c-3.43,0-6.74-0.82-9.85-2.45c-0.69-0.36-1-1.31-0.69-2.12s1.12-1.18,1.81-0.81
						c2.75,1.44,5.69,2.17,8.73,2.17s5.98-0.73,8.73-2.17c0.69-0.36,1.5,0,1.81,0.81s0,1.76-0.69,2.12
						C-53.9,171.79-57.22,172.61-60.64,172.61"/>
				</defs>
				<clipPath id="SVGID_58_">
					<use xlink:href="#SVGID_57_"  style="overflow:visible;"/>
				</clipPath>
			</g>
		</g>
		<g>
			<g>
				<defs>
					<path id="SVGID_59_" d="M-60.64,180c-2.38,0-4.75-0.3-7.06-0.9c-0.86-0.22-1.37-1.1-1.15-1.96s1.09-1.37,1.95-1.15
						c4.1,1.06,8.43,1.06,12.53,0c0.85-0.22,1.73,0.3,1.95,1.15c0.22,0.86-0.29,1.73-1.15,1.96C-55.89,179.7-58.27,180-60.64,180"/>
				</defs>
				<clipPath id="SVGID_60_">
					<use xlink:href="#SVGID_59_"  style="overflow:visible;"/>
				</clipPath>
			</g>
		</g>
		<g>
			<g>
				<defs>
					<path id="SVGID_61_" d="M-70.61,160.89c-0.84-5.79-3.5-10.65-7.95-14.49c-0.69-0.6-1.76-0.54-2.38,0.12
						c-0.62,0.67-0.56,1.69,0.13,2.29c3.85,3.33,6.13,7.49,6.86,12.53c0.13,0.89,0.98,1.5,1.9,1.38
						C-71.12,162.59-70.48,161.78-70.61,160.89z"/>
				</defs>
				<clipPath id="SVGID_62_">
					<use xlink:href="#SVGID_61_"  style="overflow:visible;"/>
				</clipPath>
			</g>
		</g>
		<g>
			<g>
				<defs>
					<path id="SVGID_63_" d="M-51.43,160.89c0.84-5.79,3.5-10.65,7.95-14.49c0.69-0.6,1.76-0.54,2.38,0.12
						c0.62,0.67,0.56,1.69-0.13,2.29c-3.85,3.33-6.13,7.49-6.86,12.53c-0.13,0.89-0.98,1.5-1.9,1.38
						C-50.92,162.59-51.56,161.78-51.43,160.89z"/>
				</defs>
				<clipPath id="SVGID_64_">
					<use xlink:href="#SVGID_63_"  style="overflow:visible;"/>
				</clipPath>
			</g>
		</g>
	</g>
</g>
</svg>
