<svg id="Layer_1" data-name="Layer 1" xmlns="http://www.w3.org/2000/svg" viewBox="0 0 344.681 334.732"><defs><style>.cls-1{fill:#91b9ba;}</style></defs><path class="cls-1" d="M116.218,168.071l27.341,84.82H126.826L121.358,235.9H91.83l-5.578,16.987H69.52L97.3,168.071Zm-9.405,20.361L96.97,221.36h20.451Z"/><path class="cls-1" d="M135.066,168.071h63.869v14.544h-23.3v70.276h-16.4V182.615h-24.17Z"/><path class="cls-1" d="M207.36,168.071h57.745v14.544H223.766v19.314h38.167v14.544H223.766v21.874h43.2v14.544h-59.6Z"/><path class="cls-1" d="M337.056,151.138c-16.576-9.317-37.236-17.636-62.977-24.285-132.8-34.3-264.452.786-264.452.786,4.858-1.431,31.816-2.565,68.575-1.211,56.074,2.067,134.968,9.927,193.112,31.384,27.473,10.139,48.948,23.12,65.742,36.943Z"/><polygon class="cls-1" points="28.152 112.996 28.868 125.739 29.585 138.483 18.19 132.732 6.795 126.98 17.474 119.988 28.152 112.996"/><path class="cls-1" d="M337.056,110.276C262.387,93.689,203.767,95.605,203.767,95.605c5.055-.3,31.573,4.685,67.077,14.3,19.965,5.409,42.775,12.29,66.212,20.522Z"/><polygon class="cls-1" points="225.12 85.523 222.94 98.099 220.761 110.676 210.959 102.5 201.157 94.324 213.139 89.923 225.12 85.523"/><path class="cls-1" d="M318.96,187.391v50.741L196.39,308.9,73.82,238.132V130.076c-6.461-.21-12.8-.356-18.925-.422v119.4L196.39,330.75l141.5-81.692V202.537A187.3,187.3,0,0,0,318.96,187.391Z"/><path class="cls-1" d="M318.96,102.558q9.262,1.75,18.925,3.889V85.673L196.39,3.981,54.9,85.673v28.013c5.874-.868,12.2-1.717,18.925-2.507V96.6L196.39,25.834,318.96,96.6Z"/><path class="cls-1" d="M318.96,128.324V136.2q9.981,4.191,18.925,8.938v-10.35C331.435,132.5,325.1,130.344,318.96,128.324Z"/></svg>