<svg xmlns="http://www.w3.org/2000/svg" version="1.1" xmlns:xlink="http://www.w3.org/1999/xlink" xmlns:svgjs="http://svgjs.com/svgjs" width="512" height="512" x="0" y="0" viewBox="0 0 512 512" style="enable-background:new 0 0 512 512" xml:space="preserve"><g><g><g id="Layer_2_16_"><g id="Layer_1-2_17_"><g id="legal_document"><path d="m306.263 393.143v-36.571c.009-25.244 20.471-45.705 45.714-45.714v-9.143c.026-7.758 3.35-15.139 9.143-20.299v-8.135c-.134-6.134-3.556-11.722-8.959-14.63-35.476-20.845-55.038-54.217-55.038-94.079.005-60.599 49.135-109.72 109.734-109.714h.149c3.015 0 5.943.09 8.959.365v-9.508c-.009-25.239-20.463-45.699-45.702-45.715h-310.857c-25.244.009-45.705 20.471-45.714 45.714v420.571c.009 25.244 20.471 45.705 45.714 45.714h310.857c25.244-.009 45.705-20.471 45.714-45.714v-45.714h-82.286c-15.129-.044-27.383-12.298-27.428-27.428zm-201.143-283.429h146.286c5.049 0 9.143 4.093 9.143 9.143 0 5.049-4.093 9.143-9.143 9.143h-146.286c-5.049 0-9.143-4.093-9.143-9.143 0-5.049 4.094-9.143 9.143-9.143zm0 36.572h146.286c5.049 0 9.143 4.093 9.143 9.143 0 5.049-4.093 9.143-9.143 9.143h-146.286c-5.049 0-9.143-4.093-9.143-9.143s4.094-9.143 9.143-9.143zm-9.143 45.714c.014-5.044 4.099-9.129 9.143-9.143h146.286c5.049 0 9.143 4.093 9.143 9.143s-4.093 9.143-9.143 9.143h-146.286c-5.043-.014-9.128-4.099-9.143-9.143zm109.715 246.857c-40.396 0-73.143-32.747-73.143-73.143s32.747-73.143 73.143-73.143 73.143 32.747 73.143 73.143c-.054 40.374-32.77 73.09-73.143 73.143z" fill="#91b9ba" data-original="#91b9ba"></path><path d="m205.692 310.857c-30.297 0-54.857 24.56-54.857 54.857s24.56 54.857 54.857 54.857 54.857-24.56 54.857-54.857c-.023-30.287-24.57-54.834-54.857-54.857zm25.502 42.146-28.44 36.571c-3.052 3.989-8.76 4.749-12.749 1.697-.638-.488-1.209-1.059-1.697-1.697l-8.138-10.423c-3.105-3.989-2.388-9.74 1.601-12.845s9.74-2.388 12.845 1.601l.915 1.186 21.211-27.244c3.149-3.936 8.892-4.573 12.828-1.424 3.839 3.072 4.555 8.634 1.618 12.577h.006z" fill="#91b9ba" data-original="#91b9ba"></path><path d="m461.695 329.143h-18.289v-27.429c.002-5.048-4.089-9.141-9.136-9.143-.002 0-.004 0-.006 0v-19.304c.126-12.467 6.842-23.936 17.652-30.147 20.277-11.812 44.771-34.354 46.277-74.684 2.289-45.451-29.479-85.552-74.248-93.723-49.661-9.401-97.54 23.236-106.941 72.897-1.059 5.592-1.593 11.27-1.597 16.961 0 42.405 25.011 66.004 45.983 78.333 11.011 6.171 17.883 17.757 18.017 30.379v19.281c-5.049 0-9.143 4.093-9.143 9.143v27.429h-18.286c-15.139.023-27.405 12.29-27.429 27.429v36.571c0 5.049 4.093 9.143 9.143 9.143h146.289c5.049 0 9.143-4.093 9.143-9.143v-36.565c-.024-15.138-12.29-27.405-27.429-27.428zm-36.575 0h-36.571v-18.286h36.571z" fill="#91b9ba" data-original="#91b9ba"></path></g></g></g></g></g></svg>