<?xml version="1.0" encoding="utf-8"?>
<!-- Generator: Adobe Illustrator 25.0.1, SVG Export Plug-In . SVG Version: 6.00 Build 0)  -->
<svg version="1.1" id="Layer_1" xmlns="http://www.w3.org/2000/svg" xmlns:xlink="http://www.w3.org/1999/xlink" x="0px" y="0px"
	 viewBox="0 0 845.9 1000" style="enable-background:new 0 0 845.9 1000;" xml:space="preserve">
<style type="text/css">
	.st0{fill:#231F20;stroke:#231F20;stroke-width:0.6176;stroke-miterlimit:10;}
	.st1{fill:#91B9BA;}
	.st2{fill:#231F20;}
	.st3{opacity:0.39;}
	.st4{opacity:0.12;}
	.st5{fill:url(#XMLID_18_);}
	.st6{fill-rule:evenodd;clip-rule:evenodd;fill:#91B9BA;}
	.st7{fill:#FFFFFF;}
	.st8{fill:#231F20;stroke:#231F20;stroke-width:0.5;stroke-miterlimit:10;}
	.st9{opacity:0.24;}
	.st10{opacity:0.23;clip-path:url(#XMLID_20_);fill:url(#XMLID_21_);}
	.st11{opacity:0.23;}
	.st12{opacity:0.23;clip-path:url(#XMLID_24_);fill:url(#XMLID_29_);}
	.st13{fill-rule:evenodd;clip-rule:evenodd;fill:#FFFFFF;}
	.st14{opacity:0.57;}
	.st15{fill:url(#XMLID_31_);}
</style>
<g>
	<path id="XMLID_38_" class="st0" d="M87.5,941.4c0,7.1,0,12.9,0.4,16c0.3,2.1,0.7,3.7,3,4c1.1,0.2,2.7,0.3,3.4,0.3
		c0.5,0,0.6,0.2,0.6,0.5c0,0.4-0.4,0.6-1.3,0.6c-4.2,0-9-0.2-9.4-0.2c-0.4,0-5.2,0.2-7.5,0.2c-0.8,0-1.2-0.2-1.2-0.6
		c0-0.3,0.2-0.5,0.6-0.5c0.7,0,1.6-0.2,2.3-0.3c1.5-0.3,1.9-1.9,2.2-4c0.4-3.1,0.4-9,0.4-16v-31.2l-11.3,0.1
		c-4.8,0.1-6.6,0.6-7.8,2.4c-0.8,1.2-1.1,1.8-1.3,2.3c-0.2,0.6-0.5,0.7-0.8,0.7c-0.2,0-0.4-0.2-0.4-0.7c0-0.7,1.5-7.1,1.7-7.7
		c0.2-0.4,0.5-1.4,0.8-1.4c0.5,0,1.3,0.7,3.3,0.9c2.2,0.3,5.2,0.4,6.1,0.4H100c2.4,0,4.2-0.2,5.4-0.4c1.1-0.2,1.8-0.4,2.1-0.4
		c0.4,0,0.4,0.5,0.4,0.9c0,2.2-0.3,7.3-0.3,8.1c0,0.7-0.2,1-0.5,1c-0.4,0-0.5-0.3-0.6-1.3l-0.1-0.8c-0.2-2.2-2.1-3.9-9.4-4.1
		l-9.7-0.1V941.4z"/>
	<path id="XMLID_41_" class="st0" d="M136.7,928.4c0-11.5,0-13.6-0.2-16c-0.2-2.5-0.7-3.7-3.3-4.2c-0.6-0.2-1.9-0.3-2.6-0.3
		c-0.3,0-0.6-0.1-0.6-0.4c0-0.5,0.4-0.6,1.2-0.6c3.4,0,8.3,0.3,8.7,0.3c0.8,0,6.7-0.3,9-0.3c4.8,0,10,0.5,14,3.3
		c2,1.3,5.3,4.9,5.3,10c0,5.4-2.3,10.9-9.2,17c6.3,7.7,11.5,14.3,16,18.9c4.1,4.2,7.4,5,9.4,5.3c1.4,0.2,2.5,0.2,3,0.2
		c0.4,0,0.7,0.2,0.7,0.5c0,0.4-0.5,0.6-1.8,0.6h-5.4c-4.3,0-6.2-0.4-8.2-1.4c-3.3-1.7-6-5.3-10.4-10.8c-3.2-4.1-6.8-9-8.3-10.9
		c-0.3-0.3-0.5-0.5-1-0.5l-9.5-0.2c-0.4,0-0.5,0.3-0.5,0.6v1.8c0,7.1,0,12.9,0.4,16c0.3,2.1,0.7,3.7,3,4c1.1,0.2,2.7,0.3,3.4,0.3
		c0.5,0,0.6,0.2,0.6,0.5c0,0.4-0.4,0.6-1.2,0.6c-4.2,0-9.1-0.2-9.5-0.2c-0.1,0-4.9,0.2-7.2,0.2c-0.8,0-1.2-0.2-1.2-0.6
		c0-0.3,0.2-0.5,0.6-0.5c0.7,0,1.6-0.2,2.3-0.3c1.5-0.3,1.9-1.9,2.2-4c0.4-3.1,0.4-9,0.4-16V928.4z M142.9,934.8
		c0,0.4,0.2,0.7,0.5,0.9c1.2,0.7,4.7,1.2,8,1.2c1.8,0,4-0.2,5.8-1.4c2.7-1.8,4.7-5.7,4.7-11.3c0-9.3-5.1-14.8-13.3-14.8
		c-2.3,0-4.4,0.2-5.1,0.4c-0.4,0.2-0.6,0.5-0.6,0.9V934.8z"/>
	<path id="XMLID_47_" class="st0" d="M236.8,908.8c0.9-2.4,1.2-2.8,1.7-2.8c0.4,0,0.7,0.4,1.7,2.6c1.1,2.8,13.2,33.3,17.9,44.5
		c2.7,6.6,5,7.8,6.6,8.2c2,0.7,3.9,0.2,3.9,0.9c0,0.7-0.4,0.6-4.9,0.6c-4.2,0-10.9-0.1-10.9-0.7c0-0.6,1.2-0.3,1.2-1.6
		c0-0.3-0.1-0.6-0.2-0.9l-7.1-18.2c-0.2-0.3-0.3-0.4-0.7-0.4h-16.5c-0.4,0-0.6,0.2-0.8,0.6l-4.6,13.1c-0.6,1.7-1.1,3.5-1.1,4.7
		c0,1.6,1.4,2.3,2.9,2.3h0.8c0.5,0,0.7,0.2,0.7,0.5c0,0.4-0.5,0.6-1.2,0.6c-6.8,0-6.6,0-14.6,0c-1,0-1.4-0.2-1.4-0.6
		c0-0.3,0.3-0.5,0.7-0.5c5.3,0,6.9-2.5,8.7-7.1L236.8,908.8z M244.8,938.3c0.2,0,0.3-0.1,0.3-0.2c0-0.1,0-0.2-0.1-0.3l-7.2-19.9
		c-0.2-0.6-0.4-0.8-0.6-0.8c-0.2,0-0.4,0.3-0.5,0.8l-6.8,19.9c-0.1,0.1-0.1,0.2-0.1,0.3c0,0.2,0.1,0.3,0.3,0.3H244.8z"/>
	<path id="XMLID_51_" class="st0" d="M301.2,952.7c0.2,6.1,1,8,3,8.5c1.4,0.4,3.1,0.5,3.8,0.5c0.4,0,0.6,0.2,0.6,0.5
		c0,0.4-0.5,0.6-1.4,0.6c-9.9,0-6.2,0-15.5,0c-0.8,0-1.2-0.1-1.2-0.6c0-0.3,0.2-0.5,0.6-0.5c0.6,0,2-0.1,3.2-0.5
		c1.9-0.5,2.3-2.6,2.3-9.4l0.1-42.3c0-2.8,0.2-3.7,0.8-3.7c0.6,0,1.9,1.6,2.6,2.3c1.2,1.3,12.6,13.1,24.4,25.3
		c7.6,7.8,16,16.8,18.4,19.2l-0.8-37.5c-0.1-4.8-0.6-6.4-3-7c-1.4-0.3-3.1-0.4-3.8-0.4c-0.5,0-0.6-0.2-0.6-0.5
		c0-0.4,0.6-0.5,1.5-0.5c8.5,0,6.7,0,14.5,0c0.8,0,1.4,0.1,1.4,0.5c0,0.3-0.3,0.5-0.8,0.5c-0.4,0-1,0-1.8,0.3
		c-2.5,0.5-2.9,2.1-2.9,6.6l-0.2,43.2c0,4.8-0.2,5.2-0.7,5.2c-0.6,0-1.5-0.8-5.6-4.7c-0.8-0.8-11.8-11.6-20-20
		c-8.9-9.2-17.5-18.5-20-21.2L301.2,952.7z"/>
	<path id="XMLID_56_" class="st0" d="M375.3,961.8c-1.1-0.6-1.1-0.8-1.1-2.8c0-3.7,0.3-6.6,0.4-7.8c0.1-0.8,0.2-1.2,0.6-1.2
		c0.5,0,0.6,0.2,0.6,0.8c0,0.7,0,1.7,0.2,2.7c1.2,5.4,6.2,7.5,11.3,7.5c7.4,0,11-5.1,11-9.8c0-5.1-2.2-8-8.8-13.3l-3.4-2.7
		c-8.1-6.5-10-11-10-16c0-7.9,6.1-13.3,15.9-13.3c3,0,5.2,0.3,7.1,0.7c1.5,0.3,2.1,0.4,2.7,0.4c0.6,0,0.8,0.2,0.8,0.5
		c0,0.4-0.3,2.8-0.3,7.8c0,1.2-0.2,1.7-0.5,1.7c-0.5,0-0.6-0.4-0.6-1c-0.1-0.9-0.5-2.9-1-3.7c-0.5-0.8-2.5-3.9-9.6-3.9
		c-5.3,0-9.4,3.2-9.4,8.5c0,4.2,2,6.9,9.3,12.4l2.2,1.6c9,6.9,11.2,11.4,11.2,17.3c0,3.1-1.2,8.6-6.5,12.3
		c-3.3,2.2-7.5,3.1-11.6,3.1C381.9,963.8,378.4,963.3,375.3,961.8z"/>
	<path id="XMLID_59_" class="st0" d="M455.9,906c17.2,0,30.1,10.5,30.1,27.7c0,16.5-12.1,30.2-30.6,30.2c-21,0-29.7-15.7-29.7-29
		C425.7,922.9,434.8,906,455.9,906z M457.5,961c6.9,0,21.1-3.9,21.1-25.3c0-17.7-11.2-27.2-23.3-27.2c-12.8,0-22.4,8.1-22.4,24.3
		C433,949.9,443.7,961,457.5,961z"/>
	<path id="XMLID_62_" class="st0" d="M514.7,928.4c0-11.5,0-13.6-0.2-16c-0.2-2.5-0.7-3.7-3.3-4.2c-0.6-0.2-1.9-0.3-2.6-0.3
		c-0.3,0-0.6-0.1-0.6-0.4c0-0.5,0.4-0.6,1.2-0.6c3.4,0,8.3,0.3,8.7,0.3c0.8,0,6.7-0.3,9-0.3c4.8,0,10,0.5,14,3.3
		c2,1.3,5.3,4.9,5.3,10c0,5.4-2.3,10.9-9.2,17c6.3,7.7,11.5,14.3,16,18.9c4.1,4.2,7.4,5,9.4,5.3c1.4,0.2,2.5,0.2,3,0.2
		c0.4,0,0.7,0.2,0.7,0.5c0,0.4-0.5,0.6-1.8,0.6h-5.4c-4.3,0-6.2-0.4-8.2-1.4c-3.3-1.7-6-5.3-10.4-10.8c-3.2-4.1-6.8-9-8.3-10.9
		c-0.3-0.3-0.5-0.5-1-0.5l-9.5-0.2c-0.4,0-0.5,0.3-0.5,0.6v1.8c0,7.1,0,12.9,0.4,16c0.3,2.1,0.7,3.7,3,4c1.1,0.2,2.7,0.3,3.4,0.3
		c0.5,0,0.6,0.2,0.6,0.5c0,0.4-0.4,0.6-1.2,0.6c-4.2,0-9.1-0.2-9.5-0.2c-0.1,0-4.9,0.2-7.2,0.2c-0.8,0-1.2-0.2-1.2-0.6
		c0-0.3,0.2-0.5,0.6-0.5c0.7,0,1.6-0.2,2.3-0.3c1.5-0.3,1.9-1.9,2.2-4c0.4-3.1,0.4-9,0.4-16V928.4z M520.9,934.8
		c0,0.4,0.2,0.7,0.5,0.9c1.2,0.7,4.7,1.2,8,1.2c1.8,0,4-0.2,5.8-1.4c2.7-1.8,4.7-5.7,4.7-11.3c0-9.3-5.1-14.8-13.3-14.8
		c-2.3,0-4.4,0.2-5.1,0.4c-0.4,0.2-0.6,0.5-0.6,0.9V934.8z"/>
	<path id="XMLID_65_" class="st0" d="M594.7,928.4c0-11.5,0-13.6-0.2-16c-0.2-2.5-0.7-3.7-3.3-4.2c-0.6-0.2-1.9-0.3-2.6-0.3
		c-0.3,0-0.6-0.1-0.6-0.4c0-0.5,0.4-0.6,1.2-0.6c1.7,0,3.9,0,5.5,0.1l3.1,0.2c0.5,0,15.8,0,17.5-0.1c1.5-0.1,2.7-0.2,3.3-0.4
		c0.4-0.1,0.7-0.4,1.1-0.4c0.2,0,0.3,0.3,0.3,0.7c0,0.5-0.4,1.4-0.6,3.5c-0.1,0.7-0.2,4-0.4,4.8c-0.1,0.4-0.3,0.8-0.6,0.8
		c-0.4,0-0.6-0.4-0.6-0.9s-0.1-1.8-0.5-2.7c-0.5-1.2-1.3-2-5.4-2.5c-1.3-0.2-9.6-0.2-10.5-0.2c-0.3,0-0.5,0.2-0.5,0.7v20.3
		c0,0.6,0.1,0.8,0.5,0.8c1,0,10.4,0,12.2-0.2c1.8-0.2,2.9-0.3,3.6-1c0.5-0.6,0.8-1,1.2-1c0.2,0,0.4,0.2,0.4,0.6
		c0,0.5-0.4,1.7-0.6,4.2c-0.2,1.5-0.3,4.2-0.3,4.7c0,0.6,0,1.4-0.5,1.4c-0.4,0-0.5-0.3-0.5-0.7c0-0.8,0-1.5-0.3-2.4
		c-0.3-1-1-2.3-4-2.6c-2.1-0.2-9.6-0.4-10.9-0.4c-0.4,0-0.5,0.2-0.5,0.5v6.5c0,2.5-0.1,11,0,12.6c0.2,5.1,1.4,6.1,8.9,6.1
		c2,0,5.4,0,7.3-0.8c2-0.8,2.9-2.3,3.5-5.3c0.1-0.8,0.3-1.1,0.7-1.1s0.4,0.6,0.4,1.1c0,0.6-0.6,5.6-1,7.2c-0.5,1.9-1.1,1.9-4.1,1.9
		c-5.8,0-9.9-0.2-12.9-0.3c-3-0.2-4.8-0.2-6-0.2c-0.2,0-1.5,0-3.1,0.1c-1.5,0-3.3,0.2-4.4,0.2c-0.8,0-1.2-0.2-1.2-0.6
		c0-0.3,0.2-0.5,0.6-0.5c0.7,0,1.6-0.2,2.3-0.3c1.5-0.3,1.9-1.9,2.2-4c0.4-3.1,0.4-9,0.4-16V928.4z"/>
	<path id="XMLID_67_" class="st0" d="M656.3,941.4c0,7.1,0,12.9,0.4,16c0.2,2.1,0.7,3.7,3,4c1.1,0.2,2.7,0.3,3.4,0.3
		c0.5,0,0.6,0.2,0.6,0.5c0,0.4-0.4,0.6-1.3,0.6c-4.2,0-9-0.2-9.4-0.2s-5.2,0.2-7.5,0.2c-0.8,0-1.2-0.2-1.2-0.6
		c0-0.3,0.2-0.5,0.6-0.5c0.7,0,1.6-0.2,2.3-0.3c1.5-0.3,1.9-1.9,2.2-4c0.4-3.1,0.4-9,0.4-16v-13c0-11.5,0-13.6-0.2-16
		c-0.2-2.5-0.9-3.7-2.6-4.1c-0.8-0.2-1.8-0.3-2.4-0.3c-0.3,0-0.6-0.1-0.6-0.4c0-0.5,0.4-0.6,1.3-0.6c2.5,0,7.3,0.3,7.7,0.3
		s5.2-0.3,7.5-0.3c0.8,0,1.2,0.2,1.2,0.6c0,0.3-0.3,0.4-0.6,0.4c-0.5,0-1,0.1-2,0.3c-2.1,0.4-2.6,1.6-2.8,4.2
		c-0.2,2.4-0.2,4.4-0.2,16V941.4z"/>
	<path id="XMLID_69_" class="st0" d="M696.4,952.7c0.2,6.1,1,8,3,8.5c1.4,0.4,3.1,0.5,3.8,0.5c0.4,0,0.6,0.2,0.6,0.5
		c0,0.4-0.5,0.6-1.4,0.6c-9.9,0-6.2,0-15.5,0c-0.8,0-1.2-0.1-1.2-0.6c0-0.3,0.2-0.5,0.6-0.5c0.6,0,2-0.1,3.2-0.5
		c1.9-0.5,2.3-2.6,2.3-9.4l0.1-42.3c0-2.8,0.2-3.7,0.8-3.7c0.6,0,1.9,1.6,2.6,2.3c1.2,1.3,12.6,13.1,24.4,25.3
		c7.6,7.8,16,16.8,18.4,19.2l-0.8-37.5c-0.1-4.8-0.6-6.4-3-7c-1.4-0.3-3.1-0.4-3.8-0.4c-0.5,0-0.6-0.2-0.6-0.5
		c0-0.4,0.6-0.5,1.5-0.5c8.5,0,6.7,0,14.5,0c0.8,0,1.4,0.1,1.4,0.5c0,0.3-0.3,0.5-0.8,0.5c-0.4,0-1,0-1.8,0.3
		c-2.5,0.5-2.9,2.1-2.9,6.6l-0.2,43.2c0,4.8-0.2,5.2-0.7,5.2c-0.6,0-1.5-0.8-5.6-4.7c-0.8-0.8-11.8-11.6-20-20
		c-8.9-9.2-17.5-18.5-20-21.2L696.4,952.7z"/>
	<path id="XMLID_71_" class="st0" d="M797.5,941.4c0,7.1,0,12.9,0.4,16c0.3,2.1,0.7,3.7,3,4c1.1,0.2,2.7,0.3,3.4,0.3
		c0.5,0,0.6,0.2,0.6,0.5c0,0.4-0.4,0.6-1.3,0.6c-4.2,0-9-0.2-9.4-0.2s-5.2,0.2-7.5,0.2c-0.8,0-1.2-0.2-1.2-0.6
		c0-0.3,0.2-0.5,0.6-0.5c0.7,0,1.6-0.2,2.3-0.3c1.5-0.3,1.9-1.9,2.2-4c0.4-3.1,0.4-9,0.4-16v-31.2l-11.3,0.1
		c-4.8,0.1-6.6,0.6-7.8,2.4c-0.8,1.2-1.1,1.8-1.3,2.3c-0.2,0.6-0.5,0.7-0.8,0.7c-0.2,0-0.4-0.2-0.4-0.7c0-0.7,1.5-7.1,1.7-7.7
		c0.2-0.4,0.5-1.4,0.8-1.4c0.5,0,1.3,0.7,3.3,0.9c2.2,0.3,5.2,0.4,6.1,0.4H810c2.4,0,4.2-0.2,5.4-0.4c1.1-0.2,1.8-0.4,2.1-0.4
		c0.4,0,0.4,0.5,0.4,0.9c0,2.2-0.3,7.3-0.3,8.1c0,0.7-0.2,1-0.5,1c-0.4,0-0.5-0.3-0.6-1.3l-0.1-0.8c-0.2-2.2-2.1-3.9-9.4-4.1
		l-9.7-0.1V941.4z"/>
	<g id="XMLID_3_">
		<g id="XMLID_10_">
			<g>
				<path id="XMLID_123_" class="st1" d="M264.7,375.6l59.2,183.6h-36.2l-11.8-36.8h-63.9l-12.1,36.8h-36.2l60.1-183.6H264.7z
					 M244.3,419.6L223,490.9h44.3L244.3,419.6z"/>
				<path id="XMLID_121_" class="st1" d="M305.5,375.6h138.2V407h-50.4v152.1h-35.5V407h-52.3V375.6z"/>
				<path id="XMLID_119_" class="st1" d="M462,375.6h125V407h-89.5v41.8h82.6v31.5h-82.6v47.3H591v31.5H462V375.6z"/>
			</g>
		</g>
		<path id="XMLID_92_" class="st1" d="M742.6,338.9c-35.9-20.2-80.6-38.2-136.3-52.6C319,212.1,34,288.1,34,288.1
			c10.5-3.1,68.9-5.6,148.4-2.6c121.4,4.5,292.1,21.5,417.9,67.9c59.5,21.9,105.9,50,142.3,80V338.9z"/>
		<polygon id="XMLID_4_" class="st1" points="74.1,256.4 75.7,284 77.2,311.5 52.6,299.1 27.9,286.6 51,271.5 		"/>
		<path id="XMLID_78_" class="st1" d="M742.6,250.5c-161.6-35.9-288.5-31.8-288.5-31.8c10.9-0.6,68.3,10.1,145.2,31
			c43.2,11.7,92.6,26.6,143.3,44.4V250.5z"/>
		<polygon id="XMLID_7_" class="st1" points="500.4,196.9 495.7,224.1 491,251.4 469.7,233.7 448.5,216 474.5,206.4 		"/>
		<path id="XMLID_5_" class="st1" d="M703.5,417.4v109.8L438.2,680.3L172.9,527.2V293.3c-14-0.5-27.7-0.8-41-0.9v6.8v251.6
			l306.2,176.8l306.2-176.8V480v-29.8C731.7,438.5,718,427.6,703.5,417.4z"/>
		<g id="XMLID_6_">
			<path id="XMLID_8_" class="st1" d="M703.5,233.8c13.4,2.5,27,5.3,41,8.4v-45L438.2,20.4L132,197.2v22.2v38.4
				c12.7-1.9,26.4-3.7,41-5.4v-31.6L438.2,67.7l265.3,153.2V233.8z"/>
			<path id="XMLID_9_" class="st1" d="M703.5,289.5v17c14.4,6,28.1,12.5,41,19.3v-22.4C730.5,298.6,716.8,293.9,703.5,289.5z"/>
		</g>
	</g>
	<g id="XMLID_94_">
		<g id="XMLID_36_">
			<path id="XMLID_275_" class="st2" d="M95.7,805c-14.7,0-23.4,13.6-23.4,26.8l0,1c0,6.8,0,15.2-5,19c-1.5,1.1-3.3,1.8-5,1.9
				l-1.2,0.1v5.1l1.3-0.1c6.5-0.6,11.6-4.5,14.1-10.7c4,6.8,10.9,10.7,18.8,10.7c13.5,0,23.7-12,23.7-28
				C118.7,815.2,109.5,805,95.7,805z M80.6,830.1c0-12.6,5.5-20.1,14.8-20.1c7.7,0,15.5,7,15.5,22.7c0,20.4-11.8,21-13.1,21
				C87.3,853.7,80.6,844.5,80.6,830.1z"/>
			<path id="XMLID_276_" class="st2" d="M139.1,780.7c0.9,0,1.7-0.7,1.7-1.6c0-0.9-0.8-1.9-2.1-1.9h-12c-1.3,0-2.1,1-2.1,1.9
				c0,0.8,0.6,1.6,1.6,1.6c0,0,0,0,0,0c1.5,0,2.1,0.1,2.2,2.6l0,68.2c-0.1,3.6-0.5,3.8-2.2,3.9l-0.2,0c-1.4,0.2-1.5,1.3-1.5,1.6
				c0,0.9,0.8,1.9,2.1,1.9h12c1.3,0,2.1-1,2.1-1.9c0-0.6-0.4-1.4-1.4-1.6l-0.2,0c-2.7,0-3.1-0.1-3.1-5.5c0-11.9,0-21.5-0.1-29.3
				c-0.1-27.7-0.1-32.7,0.2-37.3C136.2,780.8,136.9,780.7,139.1,780.7z"/>
			<path id="XMLID_279_" class="st2" d="M360.6,805.1c-2.1,0-4.2,0-6.3,0.1c-2.1,0-4.2,0.1-6.3,0.1c-0.9,0-1.5,0.7-1.5,1.6
				c0,0.2,0,0.8,0.5,1.3c0.6,0.6,1.4,0.6,2.6,0.6c0.2,0,0.5,0,0.9,0.8c0.6,1.3,0.6,1.8,0.6,2c0,0.4,0.1,4.8,0.1,23
				c0,8.8-1.7,19.2-10,19.2c-1.6,0-3.1-0.6-5-2c-4.6-3.5-5-10.5-5-17.3c0-10,0-14.8,0.1-18.2c0-1.9,0-3.4,0-5.1
				c0-2.3,0.7-2.5,1.6-2.5c1,0,3,0,3-1.8c0-0.3-0.1-1.8-2.1-1.8h-12.8c-0.5,0-1.2,0.1-1.6,0.5c-0.4,0.4-0.4,0.8-0.5,1.1
				c-0.1,0.4,0,0.7,0.2,1c0.4,0.7,1.2,0.8,2.1,0.9c0.6,0.1,1.3,0.2,1.7,0.4c0.2,0.1,0.3,0.4,0.4,0.7c0.1,0.4,0.2,1.2,0.3,2.6
				c0,1.4,0,2.2,0,2.4v19.8c0,8.8-1.7,19.2-9.9,19.2c-8.5,0-9.8-12.1-9.8-19.2c0-15.5,0-23.3,0-23.6c0-1.8,0.4-2.3,1.7-2.3
				c1.1,0,3,0,3-1.8c0-1.2-0.7-1.8-2.1-1.8h-12.8c-1.9,0-2.1,1.1-2.1,1.8c0,1.5,1.6,1.7,3,1.9c0.4,0.1,0.9,0.1,1.2,0.2
				c0.3,0.4,0.6,1.2,0.6,3.2v22.3c0,6.8-0.4,13.8-5,17.3c-1.6,1.3-3.3,1.9-4.9,1.9c-1.7-0.1-3.4-0.7-5-2c-4.6-3.5-5-10.2-5-17.3
				c0.1-21.9,0.1-22.3,0.1-22.8c0-2.6,0.6-3.1,1.7-3.1c2.6,0,3-1.1,3-1.8c0-0.9-0.7-1.8-2.1-1.8h-12.9c-1.6,0-2.1,1-2.1,1.8
				c0,0.8,0.5,1.8,3,1.8c1.2,0,1.7,0.4,1.7,3.8v21.9c-0.1,12.7-3.4,19-10,19.4h-21.6c6-5,9.6-13.4,9.6-23c0-15.4-9.4-25.8-23.3-25.8
				c-17.1,0-23.5,16.5-23.5,26.9c0,3.5,0.7,14.7,9,21.9h-21c-1.8-0.1-3.6-0.8-5-1.9c-5-3.8-5-11.9-5-18.5l0-0.4
				c0.1-0.6,0.1-1.2,0.1-1.8c0-15.3-9.6-26-23.4-26c-2.1,0-4,0.2-5.7,0.7l-0.9,0.2v5.2l1.6-0.5c1.4-0.5,2.8-0.7,4.3-0.7
				c9.4,0,15.9,9.4,15.9,23c0,9.6-3.7,20.8-14,20.8c-2.1,0-4.2-0.5-6-1.4l-1.8-0.9v6.6l1,0.2c9.9,2.1,19.2-2.1,24.5-10.6
				c2.3,6.1,7.1,10.1,13.3,11v0.1h1.2l1.3,0.1v-0.1h68.4v0.1l1.3-0.1h1.2v-0.2c5.7-0.8,9.9-3.3,12.5-7.6c2.7,4.4,6.8,6.9,12.5,7.6
				v0.3l1.2-0.1l1.2,0.1v-0.3c5.7-0.7,9.9-3.3,12.5-7.6c2.8,4.6,7.2,7.2,13.4,7.8l0.1,0c5.4,0,10.7-3.1,13.7-7.8
				c3,5.2,7.6,7.8,13.8,7.8c17.6,0,17.6-18.6,17.6-29.7v-18c0-2.2,0.8-2.4,1.8-2.5c0.6-0.1,2-0.3,2-1.8
				C362.7,806.6,362.6,805.1,360.6,805.1z M224.9,853.7c-8.2,0-16.4-7.3-16.4-23.6c0-12.7,5.5-20.2,14.8-20.2
				c9,0,15.5,9.6,15.5,22.9C238.9,848.2,231.7,853.7,224.9,853.7z"/>
			<path id="XMLID_280_" class="st2" d="M376.7,830.6c0-4,0-8,0-12.1c0-5.4,0-10.8,0-16.2c0-5.4,0-10.8,0-16.2c0-5.3,0.3-5.3,3-5.5
				c1,0,1.7-0.7,1.7-1.6c0-0.9-0.8-1.9-2.1-1.9h-12c-1.3,0-2.1,1-2.1,1.9c0,0.9,0.7,1.6,1.6,1.6c0,0,0,0,0,0c1.9,0.1,2.2,0.8,2.2,4
				c0,5.9,0,11.7,0,17.6c0,5.8,0,11.7,0,17.6c0,3.7,0,7.2,0,10.8l0,1.2h7.6L376.7,830.6z"/>
			<path id="XMLID_281_" class="st2" d="M433.5,777.1h-12c-1.9,0-2.1,1.1-2.1,1.8c0,1.6,1.9,1.8,3.1,1.9c0.2,0,0.4,0,0.6,0.1
				c0.9,0.3,1,1.2,1,4.9l0,0.4c0,0.8,0,20.2,0,30.4v18.1c0,8.5-1.1,18.4-9.9,19.2c-8.8-0.9-10-10.2-10-19.2c0-9.8,0-18.3,0-26.5
				c0-7.4,0-14.6,0-22.1v-1.8c0-1.8,0.2-3,0.6-3.3c0.1-0.1,0.4-0.2,0.8-0.2c1,0,1.6-0.1,2-0.3c0.8-0.3,1.1-0.8,1.3-1.2l0.1-0.2v-0.2
				c0-0.5-0.2-1.8-2.1-1.8H394c-0.6,0-1,0.1-1.4,0.3c-0.5,0.3-0.8,0.8-0.8,1.4c0,1,0.8,1.8,1.7,1.8c2.8,0,3,0.3,3,3.8
				c0,9.7,0,20.3,0.1,29.9c0,7.8,0,15,0,20.2c0,13.3-3.1,19.2-10,19.2c-6.4,0-9.7-5.6-10-17l0-1.2h-7.5l0.1,1.3
				c0.7,10.2,3.4,21.9,17.4,21.9c6.1,0,10.8-2.7,13.7-7.8c2.6,4.3,6.8,6.9,12.5,7.6v0.3l1.2-0.1l1.2,0.1v-0.3
				c16.7-2.3,16.5-19.1,16.4-34c0-1.6,0-3.1,0-4.6v-35.7c0-3.8,0.5-3.8,2.2-3.8c1,0,1.7-0.9,1.7-1.8
				C435.6,778.3,435.4,777.1,433.5,777.1z"/>
			<path id="XMLID_284_" class="st2" d="M510.3,805c-18.5,0-23.5,16.9-23.5,26.9c0,7.1,2.4,16.1,9,21.9h-23.8
				c-10.7,0-14.5-11.3-14.5-21c0-3.7,0.5-7.2,1.5-10.3l0.5-1.6h-8.5l-0.3,0.9c-0.9,2.9-1.3,5.9-1.3,9.1c0,17.5,11.5,28,22.5,28h39.2
				l1.2-0.1v-0.1c13.9-1.4,21.1-14.9,21.1-27.8C533.6,815.4,524.2,805,510.3,805z M495.1,830.1c0-12.7,5.6-20.2,14.9-20.2
				c9,0,15.5,9.6,15.5,22.9c0,15.4-7.2,20.9-13.9,20.9C503.3,853.7,495.1,846.4,495.1,830.1z"/>
			<path id="XMLID_287_" class="st2" d="M659.5,777.1h-12c-1.9,0-2.1,1.1-2.1,1.8c0,1.6,1.9,1.8,3.1,1.9c0.2,0,0.4,0,0.6,0.1
				c0.9,0.3,1,1.2,1,4.9l0,0.4c0,0.8,0,20.2,0,30.4v18.1c0,8.4-1.1,18.2-9.7,19.2l-0.2,0c-1.8-0.1-3.5-0.7-5-1.9l0,0
				c-4.6-3.5-5-10.8-5-17.3c0-9.9,0-14.7,0.1-18.2c0-1.9,0-3.4,0-5.2c0-2.5,1.1-2.5,1.6-2.5c1.1,0,3,0,3-1.9c0-0.2,0-0.8-0.4-1.2
				c-0.5-0.5-1.2-0.6-1.7-0.6H620c-1.8,0-2.1,1.1-2.1,1.8c0,1.4,1.5,1.6,2.8,1.8c0.4,0.1,1.1,0.2,1.3,0.3c0.7,0.9,0.7,4.3,0.6,6.1
				c0,0.5,0,1,0,1.4v18c0,6.8-0.4,13.8-5,17.3c-3.4,2.5-6.7,2.5-9.9,0c-4.6-3.5-5-10.5-5-17.3c0-19.4,0.1-21.8,0.1-22.7
				c0-0.2,0-0.3,0-0.6l0-0.4c0.2-1.9,0.4-2.2,1.5-2.2c0.9,0,3,0,3-1.8c0-0.2,0-0.8-0.5-1.2c-0.5-0.5-1.1-0.5-1.6-0.5h-12.8
				c-1.9,0-2.1,1.1-2.1,1.8c0,0.6,0.3,1,0.5,1.2c0.6,0.6,1.4,0.6,2,0.6c0.2,0,0.5,0,0.5,0l0.3,0.2h0.3c0.5,0,0.7,0.2,0.8,0.2
				c0.5,0.5,0.4,1.8,0.4,2.8l0,22.6c0,6.5-0.4,13.8-5,17.3c-3.2,2.4-6.4,2.4-9.6,0c-4.6-3.5-5-10.7-5-17.3c0-5.3,0-9.7,0.1-13.6
				c0-3.1,0-5.8,0-8.4v-0.2c0-3.2,0.4-3.5,1.6-3.5l0.1,0c0.7,0,1.7,0,2.4-0.6c0.3-0.3,0.5-0.7,0.5-1.2c0-0.2,0-0.8-0.5-1.2
				c-0.5-0.5-1.1-0.5-1.6-0.5h-12.8c-1.5,0-2.1,1-2.1,1.8c0,1.2,1.2,1.9,3.6,1.9c0.3,0,0.5,0.1,0.6,0.2c0.6,0.6,0.6,2.2,0.5,3l0,0.2
				l0.1,22.3c-0.2,9.7-1.5,18.7-10,19.3c-6.2-0.4-9.6-5.8-9.9-16.1v-26.6c0-2.1,0.3-2.2,1.1-2.4c0.4-0.1,0.6-0.1,0.9-0.2
				c0.5,0,1.9-0.2,1.9-1.8c0-0.7-0.3-1.8-2.1-1.8c-2.1,0-4.1,0-6.2,0.1c-2.1,0-4.2,0.1-6.3,0.1h-0.3l-0.3,0.2
				c-0.7,0.4-0.9,1-0.9,1.5c0,1.2,1,2.1,2.3,2.1c0.2,0,0.5,0,0.7-0.1c0.1,0,0.2,0,0.3,0c0.5,0,1.5,0,1.5,2.5l0,4.9
				c0,6.4,0,17.7,0,28.1c0,17.9-1.6,19.7-5.9,24.5c-0.6,0.6-1.2,1.3-1.9,2.1l-3.5,4.2l5-2.2c8.1-3.6,13-10.3,13.7-18.4
				c2.4,2.3,5.4,3.8,8.9,4.3v0.3l1.2-0.1l1.2,0.1v-0.3c5.8-0.8,9.9-3.3,12.5-7.6c3,5.2,7.5,7.8,13.5,7.8c5.6,0,10.8-3,13.8-7.9
				c3.1,4.9,8.2,7.9,13.8,7.9c0.1,0,0.1,0,0.2,0c5.5-0.1,10.5-3,13.5-7.8c2.6,4.4,6.8,6.9,12.6,7.6v0.3l1.2-0.1l1.2,0.1v-0.3
				c16.7-2.3,16.5-19.1,16.4-34c0-1.6,0-3.1,0-4.6v-35.7c0-3.8,0.5-3.8,2.2-3.8c1,0,1.7-0.9,1.7-1.8
				C661.6,778.3,661.4,777.1,659.5,777.1z M633.7,806.8L633.7,806.8L633.7,806.8L633.7,806.8z"/>
			<path id="XMLID_288_" class="st2" d="M679.1,780.7c0.9,0,1.7-0.7,1.7-1.6c0-0.9-0.8-1.9-2.1-1.9h-12c-1.3,0-2.1,1-2.1,1.9
				c0,0.8,0.6,1.6,1.6,1.6h0c1.5,0,2.1,0.1,2.2,2.6l0,68.2c-0.1,3.6-0.5,3.8-2.2,3.9l-0.2,0c-1.4,0.2-1.5,1.3-1.5,1.6
				c0,0.9,0.8,1.9,2.1,1.9h12c1.3,0,2.1-1,2.1-1.9c0-0.6-0.4-1.4-1.4-1.6l-0.2,0c-2.7,0-3.1-0.1-3.1-5.5l-0.1-29.1
				c-0.1-28.5-0.1-32.9,0.2-37.5C676.2,780.8,676.9,780.7,679.1,780.7z"/>
			<path id="XMLID_289_" class="st2" d="M818,853.8h-51.3c-6.9-2-10.1-10.7-10.1-18c0-11,5.8-11.9,14.7-11.9c2.8,0,5.8,0.2,8.9,0.3
				c7.9,0.4,16,0.9,23.4-1.4c7.5-2.3,10.9-10.6,12.5-14.6l0.4-0.9l-2.3-1c-3.2,6.6-9.5,7.9-14.6,8.4c-8.2,0.7-15.8,0.6-23.1,0.5
				c-2.6,0-5.2-0.1-7.8-0.1c-10.5,0-19,9.8-19,21.8c0,6.8,2.4,12.9,6.5,16.9h-8.3c-1.7,0-3.4-0.7-5-1.9l0,0c-4.6-3.5-5-10.2-5-17.3
				c0.1-21.9,0.1-22.3,0.1-22.8c0-2.6,0.6-3.1,1.7-3.1c2.6,0,3-1.1,3-1.8c0-0.9-0.7-1.8-2.1-1.8h-12.9c-1.6,0-2.1,1-2.1,1.8
				c0,0.8,0.5,1.8,3,1.8c1.2,0,1.7,0.4,1.7,3.8v21.9c-0.1,12.6-3.4,19-9.9,19.4c-6.2-0.4-9.6-5.8-9.9-16.1v-26.6
				c0-2.1,0.3-2.2,1.1-2.4c0.4-0.1,0.6-0.1,0.9-0.2c0.5,0,1.9-0.2,1.9-1.8c0-0.7-0.3-1.8-2.1-1.8c-2.1,0-4.1,0-6.2,0.1
				c-2.1,0-4.2,0.1-6.3,0.1h-0.3l-0.3,0.2c-0.7,0.4-0.9,1-0.9,1.5c0,1.2,1,2.1,2.3,2.1c0.2,0,0.5,0,0.7-0.1c0.1,0,0.2,0,0.3,0
				c0.5,0,1.5,0,1.5,2.5l0,4.9c0,6.4,0,17.7,0,28.1c0,17.9-1.6,19.7-5.9,24.5c-0.6,0.6-1.2,1.3-1.9,2.1l-3.5,4.2l5-2.2
				c8.1-3.6,13-10.3,13.7-18.4c2.4,2.3,5.4,3.8,8.9,4.3v0.3l1.2-0.1l1.2,0.1v-0.3c5.7-0.8,9.9-3.3,12.5-7.6
				c2.7,4.4,6.8,6.9,12.5,7.6v0.2h1.2l1.3,0.1v-0.1H818V853.8z"/>
			<circle id="XMLID_290_" class="st2" cx="591.8" cy="788.5" r="5.2"/>
			<circle id="XMLID_291_" class="st2" cx="606.7" cy="788.5" r="5.2"/>
			<circle id="XMLID_292_" class="st2" cx="265.3" cy="788.5" r="5.2"/>
			<circle id="XMLID_293_" class="st2" cx="280.3" cy="788.5" r="5.2"/>
			<circle id="XMLID_294_" class="st2" cx="502.8" cy="788.5" r="5.2"/>
			<circle id="XMLID_295_" class="st2" cx="517.7" cy="788.5" r="5.2"/>
			<circle id="XMLID_296_" class="st2" cx="216.2" cy="788.5" r="5.2"/>
			<circle id="XMLID_297_" class="st2" cx="231.1" cy="788.5" r="5.2"/>
			<circle id="XMLID_298_" class="st2" cx="734" cy="871.7" r="5.2"/>
		</g>
		<g id="XMLID_72_">
			<circle id="XMLID_75_" class="st2" cx="598.3" cy="776.5" r="5.2"/>
		</g>
	</g>
</g>
</svg>
