<?xml version="1.0" encoding="utf-8"?>
<!-- Generator: Adobe Illustrator 25.0.1, SVG Export Plug-In . SVG Version: 6.00 Build 0)  -->
<svg version="1.1" id="Layer_1" xmlns="http://www.w3.org/2000/svg" xmlns:xlink="http://www.w3.org/1999/xlink" x="0px" y="0px"
	 viewBox="0 0 1000 334.7" style="enable-background:new 0 0 1000 334.7;" xml:space="preserve">
<style type="text/css">
	.st0{fill:#FFFFFF;}
	.st1{fill:#FFFFFF;stroke:#FFFFFF;stroke-width:0.517;stroke-miterlimit:10;}
</style>
<path class="st0" d="M784.1,168l24.9,77.2h-15.2l-5-15.5h-26.9l-5.1,15.5h-15.2l25.3-77.2H784.1z M775.5,186.5l-9,30h18.6
	L775.5,186.5z"/>
<path class="st0" d="M801.2,168h58.1v13.2h-21.2v63.9h-14.9v-63.9h-22V168z"/>
<path class="st0" d="M867,168h52.5v13.2h-37.6v17.6h34.7v13.2h-34.7v19.9h39.3v13.2H867V168z"/>
<path class="st0" d="M985,152.6c-15.1-8.5-33.9-16-57.3-22.1c-120.8-31.2-240.6,0.7-240.6,0.7c4.4-1.3,29-2.3,62.4-1.1
	c51,1.9,122.8,9,175.7,28.6c25,9.2,44.5,21,59.8,33.6L985,152.6z"/>
<polygon class="st0" points="703.9,117.9 704.6,129.5 705.2,141.1 694.9,135.9 684.5,130.6 694.2,124.3 "/>
<path class="st0" d="M985,115.4c-67.9-15.1-121.3-13.3-121.3-13.3c4.6-0.3,28.7,4.3,61,13c18.2,4.9,38.9,11.2,60.2,18.7L985,115.4z"
	/>
<polygon class="st0" points="883.2,92.9 881.2,104.3 879.2,115.8 870.3,108.3 861.4,100.9 872.3,96.9 "/>
<path class="st0" d="M968.5,185.6v46.2L857,296.1l-111.5-64.4v-98.3c-5.9-0.2-11.6-0.3-17.2-0.4v108.6L857,316l128.8-74.3v-42.3
	C980.3,194.4,974.6,189.8,968.5,185.6z"/>
<path class="st0" d="M968.5,108.4c5.6,1.1,11.4,2.2,17.2,3.5V93L857,18.7L728.3,93v25.5c5.3-0.8,11.1-1.6,17.2-2.3V103L857,38.6
	L968.5,103L968.5,108.4z"/>
<path class="st0" d="M968.5,131.8v7.2c6.1,2.5,11.8,5.3,17.2,8.1v-9.4C979.9,135.6,974.1,133.7,968.5,131.8z"/>
<path class="st1" d="M37.7,229.2c0,5.9,0,10.8,0.3,13.4c0.2,1.8,0.6,3.1,2.5,3.4c1,0.1,1.9,0.2,2.9,0.3c0.4,0,0.5,0.2,0.5,0.4
	c0,0.3-0.4,0.5-1.1,0.5c-3.5,0-7.6-0.2-7.9-0.2s-4.4,0.2-6.3,0.2c-0.7,0-1-0.1-1-0.5c0-0.2,0.1-0.4,0.5-0.4c0.7,0,1.3-0.1,1.9-0.3
	c1.3-0.3,1.6-1.6,1.9-3.4c0.3-2.6,0.3-7.5,0.3-13.4v-26.1l-9.5,0.1c-4,0.1-5.5,0.5-6.6,2c-0.4,0.6-0.8,1.2-1.1,1.9
	c-0.2,0.5-0.4,0.6-0.7,0.6c-0.2,0-0.3-0.2-0.3-0.6c0-0.6,1.3-5.9,1.4-6.4c0.1-0.3,0.4-1.1,0.7-1.1c0.9,0.3,1.8,0.6,2.8,0.7
	c1.9,0.2,4.3,0.3,5.1,0.3h24.1c1.5,0,3.1-0.1,4.6-0.3c0.9-0.1,1.5-0.3,1.8-0.3c0.4,0,0.4,0.4,0.4,0.7c0,1.9-0.2,6.1-0.2,6.8
	c0,0.6-0.2,0.8-0.4,0.8c-0.3,0-0.4-0.2-0.5-1.1l0-0.7c-0.2-1.8-1.7-3.3-7.9-3.4l-8.1-0.1L37.7,229.2z"/>
<path class="st1" d="M79,218.3c0-9.7,0-11.4-0.1-13.4c-0.1-2.1-0.6-3.1-2.7-3.5c-0.7-0.1-1.4-0.2-2.2-0.2c-0.3,0-0.5-0.1-0.5-0.3
	c0-0.4,0.3-0.5,1-0.5c2.9,0,6.9,0.2,7.3,0.2c0.7,0,5.6-0.2,7.6-0.2c4,0,8.4,0.4,11.7,2.7c2.7,1.9,4.4,5.1,4.4,8.4
	c0,4.6-1.9,9.2-7.7,14.3c5.3,6.5,9.7,12,13.4,15.8c3.5,3.5,6.2,4.2,7.8,4.5c0.8,0.1,1.6,0.2,2.5,0.2c0.3,0,0.6,0.2,0.6,0.4
	c0,0.3-0.4,0.5-1.5,0.5h-4.6c-3.6,0-5.2-0.3-6.9-1.1c-2.7-1.4-5-4.5-8.7-9.1c-2.7-3.4-5.7-7.5-7-9.2c-0.2-0.3-0.5-0.4-0.8-0.4
	l-7.9-0.1c-0.3,0-0.4,0.2-0.4,0.5v1.5c0,5.9,0,10.8,0.3,13.4c0.2,1.8,0.6,3.1,2.5,3.4c1,0.1,1.9,0.2,2.9,0.3c0.4,0,0.5,0.2,0.5,0.4
	c0,0.3-0.4,0.5-1,0.5c-3.5,0-7.6-0.2-7.9-0.2c0,0-4.1,0.2-6,0.2c-0.7,0-1-0.1-1-0.5c0-0.2,0.1-0.4,0.5-0.4c0.7,0,1.3-0.1,1.9-0.3
	c1.3-0.3,1.6-1.6,1.9-3.4c0.3-2.6,0.3-7.5,0.3-13.4L79,218.3z M84.2,223.7c0,0.3,0.2,0.6,0.4,0.7c1,0.6,3.9,1,6.7,1
	c1.7,0.1,3.4-0.3,4.8-1.1c2.3-1.5,3.9-4.8,3.9-9.5c0-7.8-4.2-12.4-11.1-12.4c-1.4,0-2.9,0.1-4.3,0.3c-0.3,0.1-0.6,0.4-0.5,0.8V223.7
	z"/>
<path class="st1" d="M162.8,201.9c0.8-2,1-2.4,1.4-2.4c0.4,0,0.6,0.3,1.4,2.2c0.9,2.3,11,27.9,15,37.2c2.3,5.5,4.2,6.5,5.5,6.9
	c1.6,0.6,3.2,0.1,3.2,0.8c0,0.6-0.3,0.5-4.1,0.5c-3.5,0-9.2-0.1-9.2-0.6s1-0.3,1-1.3c0-0.3-0.1-0.5-0.2-0.8l-5.9-15.2
	c-0.1-0.2-0.3-0.4-0.6-0.3h-13.8c-0.3,0-0.6,0.2-0.7,0.5l-3.9,10.9c-0.5,1.3-0.8,2.6-0.9,4c0,1.4,1.2,2,2.4,2h0.7
	c0.4,0,0.6,0.1,0.6,0.4c0,0.3-0.4,0.5-1,0.5h-12.3c-0.8,0-1.2-0.1-1.2-0.5c0-0.3,0.3-0.4,0.6-0.4c4.4,0,5.8-2.1,7.3-5.9L162.8,201.9
	z M169.5,226.6c0.2,0,0.3-0.1,0.3-0.2c0-0.1,0-0.2,0-0.3l-6.1-16.7c-0.2-0.5-0.4-0.7-0.5-0.7c-0.1,0-0.3,0.2-0.4,0.7l-5.7,16.7
	c0,0.1,0,0.1,0,0.2c0,0.2,0.1,0.2,0.3,0.2H169.5z"/>
<path class="st1" d="M216.7,238.7c0.1,5.1,0.8,6.7,2.5,7.2c1,0.3,2.1,0.4,3.2,0.4c0.4,0,0.5,0.1,0.5,0.4c0,0.3-0.4,0.5-1.2,0.5h-13
	c-0.7,0-1,0-1-0.5c0-0.3,0.2-0.4,0.5-0.4c0.9,0,1.8-0.1,2.7-0.4c1.6-0.4,1.9-2.2,1.9-7.8l0.1-35.4c0-2.4,0.2-3.1,0.7-3.1
	c0.5,0,1.6,1.4,2.2,2c1,1.1,10.5,11,20.4,21.2c6.4,6.5,13.4,14.1,15.4,16.1l-0.7-31.4c-0.1-4-0.5-5.4-2.5-5.8
	c-1-0.2-2.1-0.3-3.1-0.3c-0.4,0-0.5-0.2-0.5-0.4c0-0.3,0.5-0.4,1.3-0.4h12.1c0.7,0,1.2,0.1,1.2,0.4c0,0.3-0.2,0.4-0.7,0.4
	c-0.5,0-1,0.1-1.5,0.2c-2.1,0.4-2.4,1.8-2.4,5.5l-0.1,36.2c0,4-0.1,4.4-0.6,4.4c-0.5,0-1.3-0.7-4.7-4c-0.7-0.6-9.9-9.7-16.7-16.7
	c-7.4-7.7-14.7-15.5-16.8-17.7L216.7,238.7z"/>
<path class="st1" d="M278.8,246.3c-0.9-0.5-0.9-0.7-0.9-2.4c0-3.1,0.2-5.5,0.3-6.5c0-0.7,0.2-1,0.5-1c0.4,0,0.5,0.2,0.5,0.6
	c0,0.8,0,1.5,0.2,2.3c1,4.6,5.2,6.3,9.5,6.3c6.2,0,9.2-4.3,9.2-8.2c0-4.3-1.9-6.7-7.4-11.1l-2.9-2.3c-6.8-5.4-8.4-9.2-8.4-13.4
	c0-6.6,5.1-11.1,13.3-11.1c2,0,4,0.2,6,0.6c0.7,0.2,1.5,0.3,2.3,0.3c0.5,0,0.7,0.1,0.7,0.4s-0.3,2.3-0.3,6.5c0,1-0.1,1.4-0.4,1.4
	c-0.4,0-0.5-0.3-0.5-0.8c-0.1-1.1-0.4-2.1-0.8-3.1c-0.4-0.6-2.1-3.2-8-3.2c-4.4,0-7.9,2.6-7.9,7.2c0,3.5,1.6,5.8,7.8,10.4l1.8,1.4
	c7.6,5.8,9.4,9.6,9.4,14.5c0,4.1-2.1,7.9-5.4,10.3c-2.9,1.8-6.3,2.7-9.7,2.6C284.5,248.1,281.5,247.5,278.8,246.3z"/>
<path class="st1" d="M346.3,199.6c14.4,0,25.2,8.8,25.2,23.2c0,13.8-10.1,25.3-25.6,25.3c-17.6,0-24.9-13.2-24.9-24.3
	C321.1,213.7,328.6,199.6,346.3,199.6z M347.7,245.7c5.8,0,17.7-3.2,17.7-21.2c0-14.8-9.4-22.8-19.5-22.8
	c-10.7,0-18.7,6.8-18.7,20.3C327.2,236.4,336.2,245.7,347.7,245.7L347.7,245.7z"/>
<path class="st1" d="M395.6,218.3c0-9.7,0-11.4-0.1-13.4c-0.1-2.1-0.6-3.1-2.7-3.5c-0.7-0.1-1.4-0.2-2.2-0.2c-0.3,0-0.5-0.1-0.5-0.3
	c0-0.4,0.3-0.5,1-0.5c2.9,0,7,0.2,7.3,0.2c0.7,0,5.6-0.2,7.6-0.2c4,0,8.4,0.4,11.7,2.7c2.7,1.9,4.4,5.1,4.4,8.4
	c0,4.6-1.9,9.2-7.7,14.3c5.3,6.5,9.6,12,13.4,15.8c3.5,3.5,6.2,4.2,7.8,4.5c0.8,0.1,1.6,0.2,2.5,0.2c0.3,0,0.6,0.2,0.6,0.4
	c0,0.3-0.4,0.5-1.5,0.5h-4.6c-3.6,0-5.2-0.3-6.9-1.1c-2.7-1.4-5-4.5-8.7-9.1c-2.7-3.4-5.7-7.5-7-9.2c-0.2-0.3-0.5-0.4-0.8-0.4
	l-7.9-0.1c-0.3,0-0.4,0.2-0.4,0.5v1.5c0,5.9,0,10.8,0.3,13.4c0.2,1.8,0.6,3.1,2.5,3.4c1,0.1,1.9,0.2,2.9,0.3c0.4,0,0.5,0.2,0.5,0.4
	c0,0.3-0.4,0.5-1,0.5c-3.5,0-7.6-0.2-7.9-0.2c0,0-4.1,0.2-6,0.2c-0.7,0-1-0.1-1-0.5c0-0.2,0.1-0.4,0.5-0.4c0.7,0,1.3-0.1,1.9-0.3
	c1.3-0.3,1.6-1.6,1.9-3.4c0.3-2.6,0.3-7.5,0.3-13.4L395.6,218.3z M400.8,223.7c0,0.3,0.2,0.6,0.4,0.7c1,0.6,3.9,1,6.7,1
	c1.7,0.1,3.4-0.3,4.8-1.1c2.3-1.5,3.9-4.8,3.9-9.5c0-7.8-4.2-12.4-11.1-12.4c-1.4,0-2.9,0.1-4.3,0.3c-0.3,0.1-0.6,0.4-0.5,0.8V223.7
	z"/>
<path class="st1" d="M462.6,218.3c0-9.7,0-11.4-0.1-13.4c-0.1-2.1-0.6-3.1-2.7-3.5c-0.7-0.1-1.4-0.2-2.2-0.2c-0.3,0-0.5-0.1-0.5-0.3
	c0-0.4,0.3-0.5,1-0.5c1.5,0,3.2,0,4.6,0.1l2.6,0.1c0.4,0,13.2,0,14.7-0.1c0.9,0,1.8-0.1,2.7-0.3c0.4-0.1,0.6-0.3,0.9-0.3
	c0.2,0,0.2,0.2,0.2,0.6c0,0.4-0.3,1.1-0.5,2.9c-0.1,0.6-0.2,3.3-0.3,4c-0.1,0.3-0.2,0.7-0.5,0.7c-0.4,0-0.5-0.3-0.5-0.8
	c0-0.8-0.1-1.5-0.4-2.3c-0.4-1-1.1-1.7-4.6-2.1c-1.1-0.1-8.1-0.2-8.8-0.2c-0.3,0-0.4,0.2-0.4,0.6v17c0,0.5,0,0.6,0.4,0.6
	c0.8,0,8.7,0,10.2-0.1c1.5-0.1,2.4-0.3,3-0.9c0.4-0.5,0.7-0.8,1-0.8c0.2,0,0.3,0.1,0.3,0.5c0,0.4-0.3,1.4-0.5,3.5
	c-0.1,1.2-0.3,3.5-0.3,3.9c0,0.5,0,1.2-0.4,1.2c-0.4,0-0.4-0.3-0.4-0.6c0-0.7-0.1-1.4-0.3-2c-0.3-0.9-0.8-1.9-3.4-2.2
	c-1.7-0.2-8.1-0.3-9.2-0.3c-0.2,0-0.4,0.1-0.4,0.3c0,0,0,0.1,0,0.1v5.5c0,2.1-0.1,9.2,0,10.6c0.2,4.3,1.2,5.1,7.4,5.1
	c1.7,0,4.5,0,6.2-0.7c1.7-0.7,2.4-1.9,2.9-4.5c0.1-0.7,0.2-0.9,0.6-0.9s0.4,0.5,0.4,0.9c-0.2,2-0.4,4-0.8,6
	c-0.4,1.6-0.9,1.6-3.5,1.6c-4.8,0-8.3-0.1-10.8-0.2c-2.5-0.1-4-0.2-5-0.2c-0.1,0-1.2,0-2.6,0c-1.3,0-2.7,0.1-3.7,0.1
	c-0.7,0-1-0.1-1-0.5c0-0.2,0.1-0.4,0.5-0.4c0.7,0,1.3-0.1,1.9-0.3c1.3-0.3,1.6-1.6,1.9-3.4c0.3-2.6,0.3-7.5,0.3-13.4L462.6,218.3z"
	/>
<path class="st1" d="M514.2,229.2c0,5.9,0,10.8,0.3,13.4c0.2,1.8,0.6,3.1,2.5,3.4c1,0.1,1.9,0.2,2.9,0.3c0.4,0,0.5,0.2,0.5,0.4
	c0,0.3-0.4,0.5-1.1,0.5c-3.5,0-7.6-0.2-7.9-0.2s-4.4,0.2-6.3,0.2c-0.7,0-1-0.1-1-0.5c0-0.2,0.1-0.4,0.5-0.4c0.7,0,1.3-0.1,1.9-0.3
	c1.3-0.3,1.6-1.6,1.9-3.4c0.3-2.6,0.3-7.5,0.3-13.4v-10.9c0-9.7,0-11.4-0.1-13.4c-0.1-2.1-0.8-3.1-2.2-3.5c-0.7-0.2-1.3-0.2-2-0.3
	c-0.3,0-0.5-0.1-0.5-0.3c0-0.4,0.4-0.5,1.1-0.5c2.1,0,6.2,0.2,6.5,0.2s4.4-0.2,6.3-0.2c0.7,0,1,0.1,1,0.5c0,0.3-0.3,0.3-0.5,0.3
	c-0.6,0-1.1,0.1-1.6,0.2c-1.7,0.3-2.2,1.4-2.3,3.5c-0.1,2-0.1,3.7-0.1,13.4V229.2z"/>
<path class="st1" d="M547.8,238.7c0.1,5.1,0.8,6.7,2.5,7.2c1,0.3,2.1,0.4,3.2,0.4c0.4,0,0.5,0.1,0.5,0.4c0,0.3-0.4,0.5-1.2,0.5h-13
	c-0.7,0-1,0-1-0.5c0-0.3,0.2-0.4,0.5-0.4c0.9,0,1.8-0.1,2.7-0.4c1.6-0.4,1.9-2.2,1.9-7.8l0.1-35.4c0-2.4,0.2-3.1,0.7-3.1
	c0.5,0,1.6,1.4,2.2,2c1,1.1,10.5,11,20.4,21.2c6.4,6.5,13.4,14.1,15.4,16.1l-0.7-31.4c-0.1-4-0.5-5.4-2.5-5.8
	c-1-0.2-2.1-0.3-3.1-0.3c-0.4,0-0.5-0.2-0.5-0.4c0-0.3,0.5-0.4,1.3-0.4h12.1c0.7,0,1.2,0.1,1.2,0.4c0,0.3-0.2,0.4-0.7,0.4
	c-0.5,0-1,0.1-1.5,0.2c-2.1,0.4-2.4,1.8-2.4,5.5l-0.1,36.2c0,4-0.1,4.4-0.6,4.4c-0.5,0-1.3-0.7-4.7-4c-0.7-0.6-9.9-9.7-16.7-16.7
	c-7.4-7.7-14.7-15.5-16.8-17.7L547.8,238.7z"/>
<path class="st1" d="M632.5,229.2c0,5.9,0,10.8,0.3,13.4c0.2,1.8,0.6,3.1,2.5,3.4c1,0.1,1.9,0.2,2.9,0.3c0.4,0,0.5,0.2,0.5,0.4
	c0,0.3-0.4,0.5-1.1,0.5c-3.5,0-7.6-0.2-7.9-0.2s-4.4,0.2-6.3,0.2c-0.7,0-1-0.1-1-0.5c0-0.2,0.1-0.4,0.5-0.4c0.7,0,1.3-0.1,1.9-0.3
	c1.3-0.3,1.6-1.6,1.9-3.4c0.3-2.6,0.3-7.5,0.3-13.4v-26.1l-9.5,0.1c-4,0.1-5.5,0.5-6.6,2c-0.4,0.6-0.8,1.2-1.1,1.9
	c-0.2,0.5-0.4,0.6-0.7,0.6c-0.2,0-0.3-0.2-0.3-0.6c0-0.6,1.3-5.9,1.4-6.4c0.1-0.3,0.4-1.1,0.7-1.1c0.9,0.3,1.8,0.6,2.8,0.7
	c1.9,0.2,4.3,0.3,5.1,0.3H643c1.5,0,3.1-0.1,4.6-0.3c0.9-0.1,1.5-0.3,1.8-0.3c0.4,0,0.4,0.4,0.4,0.7c0,1.9-0.2,6.1-0.2,6.8
	c0,0.6-0.2,0.8-0.4,0.8c-0.3,0-0.4-0.2-0.5-1.1l0-0.7c-0.2-1.8-1.7-3.3-7.9-3.4l-8.1-0.1L632.5,229.2z"/>
<path class="st0" d="M44.7,115c-12.3,0-19.6,11.4-19.6,22.5v0.8c0,5.7,0,12.8-4.2,16c-1.2,0.9-2.7,1.5-4.2,1.6l-1,0.1v4.3l1.1-0.1
	c5.3-0.5,9.9-4,11.8-9c3.3,5.6,9.3,9,15.8,9c11.3,0,19.9-10.1,19.9-23.4C63.9,123.5,56.2,115,44.7,115z M32,136
	c0-10.6,4.6-16.9,12.4-16.9c6.5,0,13,5.9,13,19c0,17.1-9.9,17.6-11,17.6C37.6,155.8,32,148,32,136z"/>
<path class="st0" d="M81,94.6c0.7,0,1.4-0.6,1.4-1.3c0,0,0,0,0,0c-0.1-0.9-0.8-1.6-1.8-1.6h-10c-0.9,0-1.7,0.7-1.8,1.6
	c0,0.7,0.6,1.3,1.3,1.3c0,0,0.1,0,0.1,0l0,0c1.2,0,1.7,0.1,1.8,2.2l0,57.1c-0.1,3-0.5,3.2-1.9,3.2l-0.1,0c-0.7,0.1-1.2,0.7-1.2,1.4
	c0.1,0.9,0.8,1.6,1.8,1.6h10c0.9,0,1.7-0.7,1.8-1.6c0-0.7-0.5-1.3-1.2-1.4l-0.2,0c-2.2,0-2.6,0-2.6-4.6c0-10,0-18,0-24.5
	c-0.1-23.2-0.1-27.4,0.1-31.2C78.6,94.7,79.1,94.7,81,94.6z"/>
<path class="st0" d="M266.5,115.1c-1.7,0-3.5,0-5.3,0s-3.5,0.1-5.3,0.1c-0.7,0-1.3,0.5-1.3,1.2c0,0,0,0.1,0,0.1
	c0,0.4,0.1,0.8,0.4,1.1c0.6,0.5,1.4,0.6,2.2,0.5c0.1,0,0.4,0,0.8,0.7c0.3,0.5,0.5,1.1,0.5,1.7c0,0.4,0.1,4,0.1,19.3
	c0,7.4-1.4,16.1-8.3,16.1c-1.5-0.1-3-0.6-4.2-1.6c-3.9-3-4.2-8.8-4.2-14.5c0-8.4,0-12.4,0.1-15.2c0-1.6,0-2.9,0-4.3
	c0-1.9,0.5-2.1,1.4-2.1s2.5,0,2.5-1.5c0-0.3-0.1-1.5-1.8-1.5h-10.7c-0.5,0-1,0.1-1.4,0.5c-0.2,0.3-0.4,0.6-0.4,0.9
	c-0.1,0.3,0,0.6,0.2,0.8c0.4,0.6,1,0.7,1.8,0.8c0.5,0,1,0.1,1.4,0.3c0.2,0.1,0.3,0.3,0.4,0.6c0.2,0.7,0.2,1.5,0.2,2.2
	c0,1.2,0,1.9,0,2v16.6c0,7.4-1.4,16.1-8.3,16.1c-7.1,0-8.2-10.1-8.2-16.1c0-13,0-19.5,0-19.7c0-1.5,0.3-1.9,1.5-1.9
	c0.9,0,2.5,0,2.5-1.5c0-1-0.6-1.5-1.8-1.5h-10.7c-1.6,0-1.8,1-1.8,1.5c0,1.2,1.4,1.5,2.5,1.6c0.3,0,0.7,0.1,1,0.2
	c0.4,0.8,0.6,1.7,0.5,2.7v18.7c0,5.7-0.3,11.5-4.2,14.5c-1.2,1-2.6,1.6-4.1,1.6c-1.5-0.1-3-0.7-4.2-1.6c-3.9-3-4.2-8.5-4.2-14.5
	c0.1-18.4,0.1-18.7,0.1-19.1c0-2.2,0.5-2.6,1.5-2.6c2.2,0,2.5-1,2.5-1.5c0-0.9-0.7-1.6-1.6-1.5c-0.1,0-0.1,0-0.2,0h-10.8
	c-1.3,0-1.8,0.8-1.8,1.5s0.4,1.5,2.5,1.5c1,0,1.5,0.3,1.5,3.2v18.3c-0.1,10.6-2.9,15.9-8.3,16.3h-18.1c5-4.2,8-11.2,8-19.2
	c0-12.9-7.8-21.6-19.5-21.6c-14.3,0-19.7,13.8-19.7,22.5c0,3,0.6,12.3,7.5,18.3h-17.6c-1.5-0.1-3-0.7-4.2-1.6
	c-4.2-3.2-4.2-10-4.2-15.5v-0.3c0-0.5,0-1,0-1.5c0-12.8-8-21.8-19.6-21.8c-1.6,0-3.2,0.2-4.8,0.6l-0.8,0.2v4.3l1.4-0.4
	c1.2-0.4,2.4-0.6,3.6-0.6c7.8,0,13.3,7.9,13.3,19.2c0,8-3.1,17.4-11.8,17.4c-1.8,0-3.5-0.4-5-1.2l-1.5-0.7v5.5l0.8,0.2
	c8,1.8,16.3-1.8,20.5-8.8c1.7,4.9,6,8.5,11.1,9.2v0.1h1l1.1,0.1v-0.1h57.3v0.1l1.1-0.1h1V160c4.8-0.7,8.3-2.7,10.4-6.4
	c2.2,3.7,5.7,5.8,10.5,6.4v0.2l1-0.1l1,0.1V160c4.8-0.6,8.3-2.8,10.5-6.4c2.3,3.9,6,6,11.2,6.5h0.1c4.7-0.1,9-2.6,11.4-6.5
	c2.3,4.2,6.8,6.8,11.6,6.5c14.7,0,14.7-15.6,14.7-24.9v-15c0-1.9,0.6-2,1.5-2.1c0.5-0.1,1.7-0.3,1.7-1.5
	C268.3,116.3,268.2,115.1,266.5,115.1z M152.9,155.8c-6.9,0-13.8-6.1-13.8-19.7c0-10.6,4.6-16.9,12.4-16.9c7.5,0,13,8.1,13,19.1
	C164.6,151.1,158.5,155.8,152.9,155.8z"/>
<path class="st0" d="M280,136.5c0-3.4,0-6.7,0-10.2c0-4.6,0-9.1,0-13.6s0-9,0-13.6c0-4.4,0.2-4.4,2.5-4.6c0.7,0,1.4-0.5,1.4-1.2
	c0,0,0-0.1,0-0.1c-0.1-0.9-0.8-1.6-1.8-1.6h-10c-0.9,0-1.7,0.7-1.8,1.6c0,0.7,0.6,1.3,1.3,1.3c0,0,0,0,0.1,0l0,0
	c1.6,0.1,1.9,0.7,1.9,3.4c0,4.9,0,9.8,0,14.7s0,9.8,0,14.7c0,3.1,0,6,0,9.1l0,1h6.3L280,136.5z"/>
<path class="st0" d="M327.6,91.6h-10c-1.6,0-1.8,0.9-1.8,1.5c0,1.3,1.6,1.5,2.6,1.6c0.2,0,0.3,0,0.5,0.1c0.8,0.2,0.9,1,0.9,4.1v0.3
	c0,0.7,0,16.9,0,25.4v15.2c0,7.1-1,15.4-8.3,16.1c-7.4-0.7-8.4-8.6-8.4-16.1c0-8.2,0-15.3,0-22.2c0-6.2,0-12.2,0-18.5v-1.5
	c0-1.5,0.2-2.5,0.5-2.8c0.2-0.1,0.5-0.2,0.7-0.1c0.6,0,1.1,0,1.7-0.2c0.5-0.2,0.9-0.5,1-1l0.1-0.2v-0.2c0-0.4-0.2-1.5-1.8-1.5h-10.7
	c-0.4,0-0.8,0.1-1.1,0.3c-0.4,0.2-0.7,0.7-0.7,1.2c0,0.8,0.6,1.5,1.4,1.5c2.3,0,2.5,0.2,2.5,3.2c0,8.1,0,17,0,25c0,6.6,0,12.5,0,17
	c0,11.1-2.6,16.1-8.4,16.1c-5.4,0-8.1-4.7-8.3-14.2l0-1h-6.3l0.1,1.1c0.6,8.5,2.8,18.4,14.5,18.4c4.8,0.2,9.2-2.4,11.5-6.5
	c2.2,3.6,5.7,5.7,10.5,6.4v0.2l1-0.1l1,0.1V160c14-2,13.9-16,13.7-28.5c0-1.3,0-2.6,0-3.9V97.8c0-3.2,0.4-3.2,1.8-3.2
	c0.8-0.1,1.4-0.7,1.4-1.5C329.3,92.6,329.1,91.6,327.6,91.6z"/>
<path class="st0" d="M391.9,115c-15.5,0-19.7,14.2-19.7,22.5c0,5.9,2,13.5,7.6,18.3h-19.9c-8.9,0-12.1-9.5-12.1-17.6
	c0-2.9,0.4-5.8,1.2-8.6l0.4-1.3h-7.1l-0.2,0.7c-0.7,2.5-1.1,5-1.1,7.6c0,14.7,9.6,23.5,18.9,23.5h32.8l1-0.1v-0.1
	c11.6-1.2,17.7-12.5,17.7-23.3C411.4,123.7,403.6,115,391.9,115z M379.2,136c0-10.6,4.7-16.9,12.5-16.9c7.5,0,13,8.1,13,19.1
	c0,12.9-6,17.5-11.7,17.5C386.1,155.8,379.2,149.7,379.2,136L379.2,136z"/>
<path class="st0" d="M516.9,91.6h-10c-1.6,0-1.8,0.9-1.8,1.5c0,1.3,1.6,1.5,2.6,1.6c0.2,0,0.3,0,0.5,0.1c0.8,0.2,0.9,1,0.9,4.1v0.3
	c0,0.7,0,16.9,0,25.4v15.2c0,7.1-0.9,15.2-8.1,16.1l-0.1,0c-1.5-0.1-3-0.7-4.2-1.6l0,0c-3.9-2.9-4.2-9-4.2-14.5
	c0-8.3,0-12.3,0.1-15.2c0-1.6,0-2.9,0-4.3c0-2.1,0.9-2.1,1.4-2.1c0.9,0,2.5,0,2.5-1.6c0-0.4-0.1-0.8-0.4-1c-0.4-0.3-0.9-0.5-1.4-0.5
	h-10.7c-1.5,0-1.8,1-1.8,1.5c0,1.2,1.2,1.4,2.3,1.5c0.4,0.1,0.8,0.1,1.1,0.2c0.6,0.8,0.6,3.6,0.5,5.1c0,0.4,0,0.8,0,1.2v15.1
	c0,5.7-0.3,11.5-4.2,14.5c-2.8,2.1-5.6,2.1-8.3,0c-3.9-3-4.2-8.8-4.2-14.5c0-16.2,0.1-18.2,0.1-19c0-0.2,0-0.3,0-0.5l0-0.3
	c0.2-1.6,0.3-1.8,1.3-1.8c0.8,0,2.5,0,2.5-1.5c0-0.4-0.1-0.8-0.4-1c-0.4-0.3-0.9-0.5-1.4-0.5h-10.7c-1.6,0-1.8,1-1.8,1.5
	c0,0.4,0.1,0.8,0.4,1c0.5,0.4,1.1,0.5,1.7,0.5c0.1,0,0.3,0,0.4,0l0.2,0.2h0.3c0.4,0,0.6,0.1,0.6,0.2c0.4,0.4,0.4,1.5,0.4,2.4v19
	c0,5.5-0.3,11.5-4.2,14.5c-2.3,2.1-5.8,2.1-8.1,0c-3.9-2.9-4.2-9-4.2-14.5c0-4.4,0-8.1,0-11.4c0-2.6,0-4.9,0-7v-0.2
	c0-2.7,0.3-3,1.3-3h0.1c0.7,0.1,1.4-0.1,2-0.5c0.3-0.3,0.4-0.6,0.4-1c0-0.4-0.1-0.8-0.4-1c-0.4-0.3-0.9-0.5-1.4-0.5h-10.7
	c-0.8-0.1-1.6,0.5-1.7,1.3c0,0.1,0,0.1,0,0.2c0,1,1,1.6,3,1.6c0.2,0,0.3,0,0.5,0.2c0.5,0.5,0.5,1.9,0.5,2.5v0.2l0.1,18.6
	c-0.1,8.1-1.3,15.7-8.4,16.1c-5.2-0.3-8-4.9-8.3-13.4v-22.3c0-1.7,0.3-1.8,0.9-2c0.2-0.1,0.5-0.1,0.8-0.1c0.8,0,1.5-0.6,1.6-1.4
	c0,0,0-0.1,0-0.1c0-0.6-0.2-1.5-1.8-1.5c-1.7,0-3.5,0-5.2,0s-3.5,0-5.3,0h-0.3l-0.2,0.1c-0.5,0.2-0.7,0.7-0.7,1.2
	c0,1,0.8,1.8,1.8,1.8c0,0,0.1,0,0.1,0c0.2,0,0.4,0,0.6-0.1c0.1,0,0.1,0,0.2,0c0.4,0,1.2,0,1.2,2.1l0,4.1c0,5.4,0,14.9,0,23.5
	c0,15-1.3,16.5-4.9,20.5c-0.5,0.5-1,1.1-1.6,1.8l-3,3.5l4.2-1.9c6.8-3,10.9-8.6,11.4-15.4c2,2,4.6,3.2,7.4,3.6v0.2l1-0.1l1,0.1V160
	c4.8-0.7,8.3-2.7,10.5-6.4c2.2,4.1,6.6,6.7,11.3,6.5c4.7,0,9.1-2.5,11.6-6.6c2.4,4.1,6.8,6.6,11.6,6.6h0.1c4.7-0.1,8.9-2.6,11.3-6.6
	c2.2,3.7,5.7,5.7,10.5,6.4v0.2l1-0.1l1,0.1V160c14-2,13.9-16,13.7-28.5c0-1.3,0-2.6,0-3.9V97.8c0-3.2,0.4-3.2,1.8-3.2
	c0.8-0.1,1.4-0.7,1.4-1.5C518.6,92.6,518.5,91.6,516.9,91.6z"/>
<path class="st0" d="M533.3,94.6c0.7,0,1.4-0.6,1.4-1.3c0,0,0,0,0,0c-0.1-0.9-0.8-1.6-1.8-1.6h-10c-0.9,0-1.7,0.7-1.8,1.6
	c0,0.7,0.6,1.3,1.3,1.3c0,0,0.1,0,0.1,0l0,0c1.2,0,1.7,0.1,1.8,2.2l0,57.1c-0.1,3-0.5,3.2-1.9,3.2l-0.1,0c-0.7,0.1-1.2,0.7-1.2,1.4
	c0.1,0.9,0.8,1.6,1.8,1.6h10c0.9,0,1.7-0.7,1.8-1.6c0-0.7-0.5-1.3-1.2-1.4l-0.2,0c-2.2,0-2.6,0-2.6-4.6l0-24.3
	c-0.1-23.9-0.1-27.6,0.1-31.4C530.9,94.7,531.5,94.7,533.3,94.6z"/>
<path class="st0" d="M649.7,155.8h-43c-5.8-1.6-8.5-9-8.5-15.1c0-9.2,4.9-9.9,12.3-9.9c2.4,0,4.8,0.1,7.4,0.3
	c6.6,0.4,13.4,0.8,19.6-1.2c6.3-1.9,9.1-8.9,10.5-12.2l0.3-0.7l-1.9-0.8c-2.6,5.5-7.9,6.6-12.3,7c-6.9,0.6-13.2,0.5-19.4,0.4
	c-2.2,0-4.4-0.1-6.6-0.1c-8.8,0-16,8.2-16,18.2c-0.2,5.2,1.8,10.3,5.4,14.1h-7c-1.5-0.1-3-0.7-4.2-1.6l0,0c-3.9-3-4.2-8.5-4.2-14.5
	c0.1-18.4,0.1-18.7,0.1-19.1c0-2.2,0.5-2.6,1.5-2.6c2.2,0,2.5-1,2.5-1.5c0-0.9-0.7-1.6-1.6-1.5c-0.1,0-0.1,0-0.2,0h-10.8
	c-1.3,0-1.8,0.8-1.8,1.5s0.4,1.5,2.5,1.5c1,0,1.5,0.3,1.5,3.2v18.3c-0.1,10.6-2.8,15.9-8.3,16.3c-5.2-0.3-8-4.9-8.3-13.4v-22.3
	c0-1.7,0.3-1.8,0.9-2c0.2-0.1,0.5-0.1,0.8-0.1c0.8,0,1.5-0.6,1.6-1.4c0,0,0-0.1,0-0.1c0-0.6-0.2-1.5-1.8-1.5c-1.7,0-3.5,0-5.2,0
	s-3.5,0-5.3,0h-0.3l-0.2,0.1c-0.5,0.2-0.7,0.7-0.7,1.2c0,1,0.8,1.8,1.8,1.8c0,0,0.1,0,0.1,0c0.2,0,0.4,0,0.6-0.1c0.1,0,0.1,0,0.2,0
	c0.4,0,1.2,0,1.2,2.1l0,4.1c0,5.4,0,14.9,0,23.5c0,15-1.3,16.5-4.9,20.5c-0.5,0.5-1,1.1-1.6,1.8l-3,3.5l4.2-1.9
	c6.8-3,10.9-8.6,11.4-15.4c2,2,4.6,3.2,7.4,3.6v0.2l1-0.1l1,0.1V160c4.8-0.7,8.3-2.7,10.4-6.4c2.2,3.7,5.7,5.8,10.5,6.4v0.1h1
	l1.1,0.1v-0.1h57.9V155.8z"/>
<circle class="st0" cx="460.2" cy="101.2" r="4.4"/>
<circle class="st0" cx="472.7" cy="101.2" r="4.4"/>
<circle class="st0" cx="186.7" cy="101.2" r="4.4"/>
<circle class="st0" cx="199.2" cy="101.2" r="4.4"/>
<circle class="st0" cx="385.6" cy="101.2" r="4.4"/>
<circle class="st0" cx="398.1" cy="101.2" r="4.4"/>
<circle class="st0" cx="145.5" cy="101.2" r="4.4"/>
<circle class="st0" cx="158" cy="101.2" r="4.4"/>
<circle class="st0" cx="579.3" cy="170.8" r="4.4"/>
<circle class="st0" cx="465.6" cy="91.1" r="4.4"/>
</svg>
